<svg width="3000" height="3000" viewBox="0 0 3000 3000" fill="none" xmlns="http://www.w3.org/2000/svg">
<g clip-path="url(#clip0_9_165)">
<g clip-path="url(#clip1_9_165)">
<path d="M1493.46 259.282C1493.46 259.282 1760.19 530.731 2101.66 596.722C2443.12 662.714 2707.8 894.655 2609.53 1395.69C2511.26 1896.73 1697.77 2473.11 1024.13 2359.63C350.498 2246.15 224.109 1522.02 362.865 971.704C501.621 421.384 1203.86 -104.932 1493.46 259.282Z" fill="#FFC7E8"/>
</g>
<path d="M1520 2875.95C901.441 2875.95 400 2802.54 400 2711.98C400 2621.42 901.441 2548 1520 2548C2138.56 2548 2640 2621.42 2640 2711.98C2640 2802.54 2138.56 2875.95 1520 2875.95Z" fill="#FFC7E8"/>
<g clip-path="url(#clip2_9_165)">
<path d="M1512.6 656.56C1539.02 675.683 1595.77 726.455 1570.63 804.74C1541.32 896.031 1448.21 887.662 1409.9 886.436C1365.87 885.032 1273.63 831.484 1241.57 931.17C1212.04 1023.09 984.733 858.18 910.654 765.324C853.091 693.178 768.527 467.612 981.22 393.648C1230.41 307.003 1274.43 502.975 1374.81 564.188C1418.72 590.964 1470.57 628.131 1512.6 656.56Z" fill="white"/>
</g>
<g clip-path="url(#clip3_9_165)">
<path d="M2157.83 1431.38L2189.3 1418.11L2190.02 1365.35L2171.01 1317.96C2187.44 1290.81 2209.1 1267.18 2234.75 1248.46C2276.22 1218.82 2315.21 1198.49 2326.52 1198.66C2322.58 1191.74 2235.45 1095.98 2156.94 1057.18C2078.43 1018.38 2037.53 1011.2 1977.95 1010.7C1918.36 1010.21 1837 1021.97 1765.77 1087.41C1716.59 1132.6 1697.55 1170.05 1697.55 1170.05C1697.55 1170.05 1790.97 1234.59 1812.37 1277.33C1843.12 1284.61 2157.83 1431.38 2157.83 1431.38Z" fill="white"/>
<path d="M2068.45 1169.77C2084.29 1122.28 2099.16 1064.52 2119.99 1038.83L2167.44 1063.64C2145.96 1087.36 2125.92 1130.88 2115.03 1179.72C2111.85 1194.02 2103.19 1203.82 2104.1 1215.54C2105.01 1227.27 2115.9 1239.8 2110.46 1245.52C2105.02 1251.25 2107.17 1256.7 2107.73 1261.76C2111.15 1292.55 2134.19 1427.3 2188.91 1464.4C2185.8 1526.35 2185.11 1558.92 2185.11 1558.92C2189.38 1673.91 2207.11 1820.24 2238.73 1996.06C2290.61 2284.46 2307.43 2519.67 2307.43 2519.67C2307.43 2519.67 2253.21 2531.43 2208.36 2533.67C2184.92 2534.84 2146.67 2553.57 2143.86 2533.82C2141.06 2514.07 2026.53 2033.93 1958.32 1849.05C1948.5 1822.45 1941.96 2105.72 1938.22 2212.13C1934.49 2318.53 1927.42 2497.01 1907.85 2521.06C1898.73 2532.26 1705.96 2494.46 1696.15 2487.46C1686.33 2480.46 1761.34 1704.85 1759.24 1633.45C1757.13 1562.05 1756.45 1552.12 1756.45 1465.32C1756.07 1331.75 1812.43 1311.05 1824.38 1226.56C1814.63 1226.51 1806.37 1226.75 1813.95 1215.7C1821.52 1204.65 1829.34 1192.3 1826.76 1187.82C1824.18 1183.34 1811.33 1178.19 1827.81 1154.17C1829.66 1137.25 1839.35 1057.11 1877.8 1023.86C1895.18 1019.02 1912.88 1015.43 1930.78 1013.13C1930.78 1013.13 1886.87 1029.08 1873.16 1099.38C1866.01 1135.98 1867.03 1160.25 1867.03 1160.25C1867.03 1160.25 1874.97 1164.53 1868.45 1187.11C1871.85 1200.85 1887.71 1211.78 1885.74 1217.63C1885.31 1219.2 1884.3 1220.55 1882.92 1221.41C1881.53 1222.26 1879.87 1222.56 1878.27 1222.23C1878.27 1222.23 1908.05 1271.11 1955.26 1267.6C2002.47 1264.08 2032.15 1246.58 2042.43 1230.72C2040.44 1229.32 2034.37 1226.48 2042.19 1221.04C2050.01 1215.6 2062.17 1202.25 2063.58 1196.64C2064.98 1191.04 2068.45 1169.77 2068.45 1169.77Z" fill="#FFC7E8"/>
<path d="M2075.25 1478.22C2075.65 1478.22 2076.06 1478.14 2076.43 1477.98C2076.81 1477.82 2077.14 1477.58 2077.42 1477.29C2077.7 1476.99 2077.92 1476.64 2078.05 1476.26C2078.19 1475.88 2078.25 1475.47 2078.23 1475.06C2078.2 1474.67 2075.75 1435.5 2071.01 1396.58C2061.15 1315.66 2051.22 1314.56 2046.98 1314.09C2046.75 1314.06 2046.52 1314.06 2046.29 1314.09C1980.59 1322.07 1896.35 1320.68 1867.7 1314.14C1865.86 1313.72 1863.95 1313.74 1862.12 1314.19C1860.29 1314.63 1858.59 1315.5 1857.15 1316.72C1833.64 1335.44 1833.37 1452.76 1833.37 1457.74C1833.37 1458.49 1833.65 1459.22 1834.16 1459.77C1834.67 1460.32 1835.38 1460.66 1836.13 1460.71L2075.03 1478.21C2075.11 1478.22 2075.18 1478.22 2075.25 1478.22ZM2046.54 1320.06C2048.23 1320.65 2056.54 1327.15 2065.08 1397.27C2069 1429.39 2071.35 1461.69 2072.05 1472.03L1839.33 1454.97C1839.54 1419.89 1843.67 1335.06 1860.86 1321.37C1861.6 1320.7 1862.48 1320.23 1863.44 1319.98C1864.4 1319.73 1865.41 1319.71 1866.37 1319.94C1898.65 1327.32 1986.06 1327.35 2046.54 1320.06Z" fill="#BA3C86"/>
<path d="M1950.41 1396.32C1968.97 1396.32 2026.55 1387.87 2065.13 1369.85C2065.49 1369.69 2065.82 1369.46 2066.09 1369.17C2066.36 1368.89 2066.57 1368.55 2066.71 1368.18C2066.84 1367.81 2066.91 1367.41 2066.89 1367.02C2066.87 1366.62 2066.78 1366.24 2066.61 1365.88C2066.44 1365.52 2066.21 1365.2 2065.91 1364.94C2065.62 1364.67 2065.28 1364.47 2064.91 1364.33C2064.53 1364.2 2064.14 1364.15 2063.74 1364.17C2063.35 1364.19 2062.96 1364.29 2062.61 1364.47C2023.35 1382.8 1964.17 1391.04 1948.64 1390.33C1934.16 1389.7 1858.66 1364.33 1844.77 1357.76C1844.42 1357.59 1844.03 1357.5 1843.64 1357.48C1843.25 1357.46 1842.86 1357.52 1842.49 1357.65C1842.13 1357.78 1841.79 1357.98 1841.5 1358.24C1841.21 1358.5 1840.97 1358.82 1840.8 1359.17C1840.64 1359.53 1840.54 1359.91 1840.52 1360.3C1840.5 1360.69 1840.56 1361.08 1840.69 1361.45C1840.82 1361.82 1841.02 1362.16 1841.29 1362.44C1841.55 1362.73 1841.87 1362.97 1842.22 1363.14C1855.41 1369.38 1932.37 1395.57 1948.37 1396.28C1948.98 1396.3 1949.67 1396.32 1950.41 1396.32Z" fill="#BA3C86"/>
<path d="M1496.34 946.04C1485.94 935.621 1477.23 931.651 1469.95 979.174C1463.41 1021.88 1463.59 1035.62 1471.07 1044.49C1478.55 1053.35 1498.38 1092.57 1499.83 1106.69C1508.26 1188.36 1576.51 1430.66 1644.74 1429.86C1712.97 1429.05 1784.49 1349.89 1784.49 1349.89C1784.49 1349.89 1810.27 1290.5 1812.89 1276.5C1787.47 1240.45 1715.4 1182.24 1715.4 1182.24C1673.63 1254.76 1647.25 1283.28 1580.3 1117.98C1582.59 1080.45 1571.61 1055.95 1565.06 1034.02C1558.52 1012.09 1551.79 1008.43 1544.56 1006.78C1542.73 995.686 1542.91 993.579 1537.03 988.411C1531.15 983.242 1541.44 986.507 1529.09 968.845C1526.24 964.779 1518.17 964.406 1513.55 965.303C1510.28 961.179 1502.09 956.494 1499.89 955.503C1499.34 953.682 1499.49 949.715 1496.34 946.04Z" fill="#FFC7E8"/>
<path d="M1550.33 2678.08C1552.71 2642.22 1676.27 2614.38 1713.19 2594.78C1750.11 2575.18 1754.32 2535.05 1761.76 2505.35L1851.91 2519C1850.87 2561.84 1880.51 2623.5 1878.4 2650.8C1876.3 2678.1 1747.55 2680.67 1657.83 2689.07C1568.1 2697.47 1548.93 2699.08 1550.33 2678.08Z" fill="#FFC7E8"/>
<path d="M2171.16 1728.89C2173.51 1752.44 2103.07 1680.69 2093.55 1629.66C2084.44 1627.95 2076.32 1627.15 2072.11 1631.49C2076.09 1653.88 2086.51 1701.17 2139 1741.42C2164.65 1761.09 2186.86 1769.34 2203.5 1769.52C2200.78 1752.98 2171.16 1728.89 2171.16 1728.89Z" fill="white"/>
<path d="M2285.75 2523.89C2254.14 2256.93 2234.44 2138.86 2207.84 2011.46C2181.24 1884.06 2155.84 1556.17 2155.84 1556.17L2185.21 1554.44C2185.21 1554.44 2194.28 1744.22 2234.09 1969.98C2260.26 2118.32 2298.3 2387.74 2307.42 2519.66C2297.6 2522.11 2285.75 2523.89 2285.75 2523.89Z" fill="white"/>
<path d="M1956.92 1843.8C1929.58 1853.25 1921.88 1954.06 1919.78 1977.16C1917.68 2000.26 1906.91 2492.13 1876.8 2521.99C1891.25 2522.61 1909.05 2528.39 1913.24 2509.8C1917.43 2491.2 1935.32 2378.68 1940.87 2129.06C1946.17 1890.59 1956.92 1843.8 1956.92 1843.8Z" fill="white"/>
<path d="M1796.85 1629.29C1780.47 1697.51 1762.9 1729.75 1753.92 1730.42C1752.15 1755.05 1751.02 1765.75 1751.02 1765.75C1751.02 1765.75 1775.21 1761.2 1796.94 1700.64C1805.83 1675.87 1817.5 1635.39 1817.93 1630.92C1810.94 1629.96 1803.9 1629.42 1796.85 1629.29V1629.29Z" fill="white"/>
<path d="M1744.23 1853.6C1819.52 1957.33 1834.75 2023.39 1783.93 2004.93C1733.12 1986.47 1798.03 2048.8 1772.79 2096.4C1747.54 2144 1740.07 2125.22 1730.5 2164.42C1720.92 2203.61 1714.09 2212.02 1714.09 2212.02L1744.23 1853.6Z" fill="#BA3C86"/>
<path d="M2157.16 2545.79C2164.7 2545.79 2174.07 2543.54 2183.77 2541.21C2191.87 2538.99 2200.14 2537.46 2208.49 2536.64C2253.07 2534.41 2307.5 2522.69 2308.05 2522.57C2308.75 2522.42 2309.37 2522.02 2309.8 2521.45C2310.23 2520.87 2310.44 2520.17 2310.39 2519.45C2310.22 2517.1 2292.96 2280.79 2241.65 1995.53C2210.41 1821.85 2192.39 1674.92 2188.07 1558.81C2188.04 1558.02 2187.7 1557.28 2187.12 1556.74C2186.54 1556.2 2185.77 1555.92 2184.98 1555.95C2184.19 1555.98 2183.45 1556.32 2182.91 1556.9C2182.37 1557.48 2182.09 1558.24 2182.11 1559.03C2186.44 1675.41 2204.49 1822.62 2235.78 1996.58C2284.14 2265.46 2302.22 2490.78 2304.25 2517.29C2293.04 2519.6 2246.82 2528.76 2208.19 2530.69C2199.46 2531.52 2190.82 2533.1 2182.37 2535.42C2168.95 2538.64 2155.08 2541.97 2149.43 2538.15C2148.67 2537.6 2148.03 2536.89 2147.58 2536.07C2147.12 2535.24 2146.85 2534.33 2146.79 2533.39C2144.72 2518.81 2029.94 2034.59 1961.1 1848.02C1959.84 1844.58 1957.89 1844.14 1956.46 1844.36C1952.73 1844.97 1949.2 1845.55 1944.28 1951.34C1941.53 2010.54 1939.24 2084.64 1937.41 2144.18C1936.59 2170.8 1935.88 2193.79 1935.24 2212.01C1932.26 2296.66 1925.31 2494.88 1905.53 2519.18C1902.64 2521.25 1877.21 2521.36 1801.05 2507.85C1749.93 2498.77 1705.47 2488.65 1698.52 2485.39C1695.26 2467.96 1714.19 2244.83 1730.91 2047.66C1747.52 1851.94 1763.2 1667.07 1762.21 1633.37L1761.49 1609.35C1759.95 1558.45 1759.43 1541.3 1759.43 1465.32C1760.25 1381.49 1779.63 1344.06 1798.36 1307.86C1810.77 1283.9 1822.48 1261.26 1827.33 1226.98C1827.4 1226.59 1827.38 1226.19 1827.29 1225.8C1827.19 1225.42 1827.02 1225.06 1826.79 1224.74C1826.55 1224.42 1826.26 1224.15 1825.92 1223.95C1825.58 1223.75 1825.2 1223.62 1824.81 1223.56C1824.42 1223.51 1824.02 1223.53 1823.64 1223.63C1823.25 1223.73 1822.9 1223.91 1822.58 1224.15C1822.27 1224.39 1822 1224.69 1821.81 1225.03C1821.61 1225.37 1821.48 1225.75 1821.44 1226.14C1816.72 1259.43 1805.23 1281.63 1793.07 1305.13C1774.9 1340.24 1754.31 1380.02 1753.48 1465.29C1753.48 1541.39 1754 1558.56 1755.53 1609.53L1756.25 1633.54C1757.23 1666.9 1740.84 1860.22 1724.98 2047.16C1715.92 2153.99 1706.55 2264.46 1700.24 2346.97C1689.57 2486.44 1691.92 2488.11 1694.41 2489.89C1700.37 2494.15 1754.77 2505.73 1801.74 2514.02C1902.89 2531.87 1908.36 2525.15 1910.15 2522.95C1928.69 2500.17 1936.25 2353.1 1941.2 2212.24C1941.84 2193.99 1942.55 2171 1943.37 2144.38C1946.4 2046.26 1951.31 1887.2 1957.27 1854.86C2026.18 2044.49 2138.85 2519.81 2140.9 2534.24C2141.08 2536 2141.63 2537.7 2142.53 2539.23C2143.43 2540.75 2144.64 2542.07 2146.1 2543.08C2149.43 2545.06 2153.28 2546.01 2157.16 2545.79V2545.79Z" fill="#BA3C86"/>
<path d="M1922.65 1599.93C2040.91 1599.93 2162.5 1589.68 2186.65 1585.55C2187.43 1585.42 2188.12 1584.98 2188.58 1584.34C2189.03 1583.69 2189.22 1582.89 2189.08 1582.12C2188.95 1581.34 2188.51 1580.65 2187.87 1580.19C2187.22 1579.73 2186.42 1579.55 2185.64 1579.69C2149.31 1585.9 1891.39 1606.04 1758.33 1583.84C1757.56 1583.71 1756.76 1583.9 1756.12 1584.36C1755.48 1584.81 1755.05 1585.51 1754.92 1586.28C1754.79 1587.06 1754.97 1587.85 1755.43 1588.49C1755.89 1589.14 1756.58 1589.57 1757.35 1589.7C1802.59 1597.25 1862.19 1599.93 1922.65 1599.93Z" fill="#BA3C86"/>
<path d="M1964.86 1640.16C2058.88 1640.16 2186.96 1620.26 2188.25 1620.06C2188.64 1620 2189.02 1619.87 2189.36 1619.67C2189.7 1619.47 2190 1619.2 2190.24 1618.89C2190.48 1618.57 2190.65 1618.21 2190.74 1617.82C2190.84 1617.44 2190.86 1617.04 2190.79 1616.65C2190.73 1616.25 2190.59 1615.88 2190.38 1615.54C2190.18 1615.21 2189.9 1614.91 2189.58 1614.68C2189.26 1614.45 2188.89 1614.29 2188.5 1614.2C2188.12 1614.12 2187.71 1614.11 2187.32 1614.18C2186.05 1614.38 2058.4 1634.21 1964.86 1634.21C1871.44 1634.21 1842.5 1631.7 1759.33 1620.95C1758.94 1620.89 1758.54 1620.91 1758.15 1621C1757.77 1621.1 1757.4 1621.27 1757.08 1621.51C1756.77 1621.75 1756.5 1622.05 1756.3 1622.39C1756.1 1622.73 1755.97 1623.11 1755.91 1623.51C1755.86 1623.9 1755.89 1624.3 1756 1624.69C1756.11 1625.07 1756.29 1625.43 1756.54 1625.74C1756.78 1626.05 1757.09 1626.31 1757.44 1626.5C1757.79 1626.69 1758.17 1626.81 1758.57 1626.85C1842.05 1637.64 1871.09 1640.16 1964.86 1640.16Z" fill="#BA3C86"/>
<path d="M1926.63 1013.64C1951.78 1010.69 2017.36 999.781 2088.01 1026.8C2158.67 1053.82 2211.1 1085.38 2263.92 1134.54C2316.74 1183.7 2326.52 1198.66 2326.52 1198.66C2326.52 1198.66 2311.62 1194.91 2293.14 1206.23C2257.53 1209.32 2222.48 1217.73 2218.97 1173.27C2215.47 1128.81 2192.57 1114.24 2168.15 1111.15C2148.69 1108.68 2121.91 1067.8 2080.54 1067.34C2039.17 1066.87 1997.88 1083.17 1936.82 1059.44C1896.55 1043.79 1785.87 1070.09 1698.25 1169.77C1698.25 1169.77 1732.29 1113.82 1784.49 1071.58C1836.7 1029.34 1926.63 1013.64 1926.63 1013.64" fill="#FFC7E8"/>
<path d="M1714.82 1184.63C1746.03 1221.09 1781.91 1279.01 1775.02 1311.56C1768.12 1344.11 1752.5 1356.01 1748.4 1383.19L1772.36 1361.98C1772.36 1361.98 1799.03 1295.52 1811.3 1275.27C1777.29 1224.29 1714.82 1184.63 1714.82 1184.63Z" fill="#BA3C86"/>
<path d="M1577.62 1078.98C1582.63 1099.17 1585.92 1117.63 1581.24 1118.07L2371.41 1907.13C2375.58 1911.29 2390.93 1920.97 2398.58 1920.97C2399.19 1921.02 2399.8 1920.94 2400.37 1920.75C2400.95 1920.56 2401.48 1920.26 2401.94 1919.86C2406.84 1914.96 2394.11 1894.32 2389.19 1889.4L1577.62 1078.98Z" fill="#FFC7E8"/>
<path d="M1914.77 842.439C1916.64 829.373 1943.01 845.705 1953.76 825.172C1964.51 804.638 1961.24 782.238 1984.61 764.041L2131.46 874.641C2089.41 913.005 2061.85 963.192 2061.85 963.192C2057.44 981.819 2057.44 1001.22 2061.85 1019.84L2010.03 1012.06L1947.11 1011.61C1955.16 998.194 1958.79 957.71 1955.06 953.509C1930.46 925.885 1913.93 926.908 1935.43 883.974C1941.96 870.906 1912.9 855.505 1914.77 842.439Z" fill="#FFC7E8"/>
<path d="M2157.83 1432.83C2158.34 1432.83 2158.84 1432.7 2159.29 1432.45C2159.73 1432.2 2160.1 1431.84 2160.37 1431.41C2160.64 1430.97 2160.79 1430.48 2160.81 1429.97C2160.82 1429.46 2160.71 1428.95 2160.48 1428.5C2138.41 1385.52 2122.78 1339.54 2114.07 1292.03C2111.57 1277.64 2110.34 1263.06 2110.38 1248.45C2110.38 1247.66 2110.07 1246.91 2109.51 1246.35C2108.95 1245.79 2108.19 1245.48 2107.4 1245.48C2106.61 1245.48 2105.85 1245.79 2105.3 1246.35C2104.74 1246.91 2104.42 1247.66 2104.42 1248.45C2104.38 1263.41 2105.64 1278.34 2108.2 1293.08C2117.01 1341.17 2132.83 1387.71 2155.17 1431.22C2155.43 1431.71 2155.81 1432.11 2156.28 1432.4C2156.74 1432.68 2157.28 1432.83 2157.83 1432.83V1432.83Z" fill="#BA3C86"/>
<path d="M2115.03 1182.69C2115.71 1182.69 2116.37 1182.46 2116.9 1182.03C2117.43 1181.61 2117.79 1181.01 2117.94 1180.35C2128.07 1133.62 2147.88 1089.67 2169.65 1065.64C2169.93 1065.35 2170.14 1065.01 2170.29 1064.64C2170.43 1064.27 2170.5 1063.87 2170.48 1063.47C2170.47 1063.07 2170.38 1062.68 2170.21 1062.32C2170.04 1061.95 2169.8 1061.63 2169.5 1061.36C2169.21 1061.1 2168.86 1060.89 2168.48 1060.76C2168.11 1060.63 2167.71 1060.57 2167.31 1060.6C2166.91 1060.63 2166.52 1060.73 2166.16 1060.91C2165.81 1061.09 2165.49 1061.34 2165.23 1061.65C2142.8 1086.4 2122.45 1131.41 2112.11 1179.09C2111.95 1179.86 2112.09 1180.67 2112.52 1181.33C2112.95 1181.99 2113.62 1182.46 2114.4 1182.63C2114.6 1182.67 2114.82 1182.69 2115.03 1182.69V1182.69Z" fill="#BA3C86"/>
<path d="M1867.04 1158.45C1867.83 1158.45 1868.59 1158.14 1869.14 1157.58C1869.7 1157.02 1870.02 1156.26 1870.02 1155.48C1870.05 1104.64 1888.25 1039.37 1928.13 1016.21C1928.79 1015.81 1929.27 1015.16 1929.46 1014.4C1929.65 1013.65 1929.54 1012.85 1929.15 1012.18C1928.76 1011.51 1928.12 1011.02 1927.37 1010.81C1926.62 1010.6 1925.82 1010.7 1925.14 1011.07C1883.23 1035.41 1864.1 1102.99 1864.06 1155.47C1864.06 1156.26 1864.37 1157.02 1864.93 1157.57C1865.49 1158.13 1866.25 1158.45 1867.04 1158.45V1158.45Z" fill="#BA3C86"/>
<path d="M1956.1 1270.55C1988.32 1270.55 2022.55 1256.67 2041.42 1235C2041.86 1234.48 2042.31 1233.95 2042.75 1233.4C2043 1233.1 2043.18 1232.75 2043.29 1232.37C2043.4 1232 2043.43 1231.6 2043.39 1231.22C2043.35 1230.83 2043.23 1230.45 2043.04 1230.11C2042.86 1229.77 2042.6 1229.46 2042.3 1229.22C2041.99 1228.97 2041.64 1228.79 2041.27 1228.68C2040.89 1228.57 2040.5 1228.54 2040.11 1228.58C2039.72 1228.62 2039.34 1228.74 2039 1228.93C2038.66 1229.11 2038.35 1229.37 2038.11 1229.67C2037.71 1230.16 2037.31 1230.64 2036.92 1231.09C2016.62 1254.41 1977.3 1268.17 1943.44 1263.82C1923.95 1261.31 1897.5 1251.82 1882.15 1220.82C1881.98 1220.47 1881.74 1220.15 1881.44 1219.89C1881.15 1219.64 1880.81 1219.44 1880.44 1219.31C1880.06 1219.18 1879.67 1219.13 1879.28 1219.16C1878.89 1219.18 1878.5 1219.28 1878.15 1219.46C1877.8 1219.63 1877.48 1219.87 1877.23 1220.17C1876.97 1220.46 1876.77 1220.81 1876.65 1221.18C1876.52 1221.55 1876.47 1221.95 1876.5 1222.34C1876.53 1222.73 1876.63 1223.11 1876.81 1223.46C1893.33 1256.81 1921.75 1267.03 1942.68 1269.72C1947.13 1270.29 1951.62 1270.56 1956.1 1270.55V1270.55Z" fill="#BA3C86"/>
<path d="M2068.45 1172.74C2069.08 1172.74 2069.68 1172.55 2070.19 1172.18C2070.7 1171.82 2071.08 1171.3 2071.28 1170.71C2074.58 1160.81 2077.9 1150.28 2081.11 1140.09C2093.42 1101.02 2106.16 1060.6 2122.31 1040.7C2122.81 1040.09 2123.04 1039.3 2122.96 1038.52C2122.87 1037.73 2122.48 1037.01 2121.87 1036.52C2121.26 1036.02 2120.47 1035.79 2119.68 1035.87C2118.9 1035.95 2118.17 1036.34 2117.68 1036.96C2100.82 1057.74 2087.91 1098.7 2075.43 1138.31C2072.22 1148.47 2068.91 1158.98 2065.62 1168.83C2065.5 1169.2 2065.45 1169.59 2065.48 1169.98C2065.5 1170.37 2065.61 1170.75 2065.78 1171.1C2065.96 1171.45 2066.2 1171.77 2066.5 1172.02C2066.79 1172.28 2067.14 1172.47 2067.51 1172.6C2067.81 1172.7 2068.13 1172.75 2068.45 1172.74V1172.74Z" fill="#BA3C86"/>
<path d="M2187.79 1422.42C2188.53 1422.42 2189.24 1422.15 2189.79 1421.65C2190.34 1421.15 2190.68 1420.47 2190.75 1419.73C2193.11 1394.85 2193.61 1377.54 2192.28 1366.79C2192.18 1366.01 2191.77 1365.3 2191.15 1364.81C2190.53 1364.33 2189.74 1364.11 2188.95 1364.21C2188.17 1364.3 2187.45 1364.71 2186.97 1365.33C2186.48 1365.95 2186.26 1366.74 2186.36 1367.53C2187.64 1377.84 2187.14 1394.73 2184.82 1419.17C2184.75 1419.95 2184.99 1420.74 2185.49 1421.34C2185.99 1421.95 2186.72 1422.34 2187.5 1422.41C2187.6 1422.42 2187.7 1422.42 2187.79 1422.42V1422.42Z" fill="#BA3C86"/>
<path d="M2310.34 1234.68L2296.32 1207.96C2296.32 1207.96 2324.4 1192.68 2327.94 1202.83C2331.49 1212.98 2310.34 1234.68 2310.34 1234.68Z" fill="#BA3C86"/>
<path d="M2080.13 1561.94C2080.13 1561.94 2042.38 1570.05 2025.85 1576.46C2015.8 1566.6 1951.48 1500.8 1951.48 1500.8C1951.48 1500.8 1985.31 1485.66 1976.54 1476.56C1967.78 1467.46 1963.32 1466.13 1971.25 1461.54C1979.17 1464.4 2071.78 1539.19 2080.13 1561.94Z" fill="#FFC7E8"/>
<path d="M1578.89 2697.88C1595.56 2697.88 1620.58 2695.54 1658.1 2692.03C1676.34 2690.32 1696.66 2688.82 1716.31 2687.37C1814.89 2680.09 1879.63 2673.63 1881.38 2651.03C1882.39 2637.85 1876.63 2618.1 1869.97 2595.22C1862.64 2570.09 1854.34 2541.61 1854.89 2519.07C1854.91 2518.28 1854.61 2517.52 1854.07 2516.95C1853.52 2516.38 1852.77 2516.04 1851.98 2516.02C1851.59 2516.01 1851.2 2516.08 1850.83 2516.21C1850.46 2516.35 1850.13 2516.57 1849.84 2516.84C1849.56 2517.11 1849.33 2517.43 1849.18 2517.79C1849.02 2518.15 1848.94 2518.54 1848.93 2518.93C1848.36 2542.39 1856.8 2571.34 1864.24 2596.87C1870.48 2618.26 1876.36 2638.46 1875.44 2650.56C1873.96 2669.75 1786.3 2676.23 1715.87 2681.43C1696.19 2682.88 1675.85 2684.38 1657.55 2686.1C1594.86 2691.96 1563.4 2694.91 1555.66 2687.38C1553.74 2685.52 1553.01 2682.71 1553.31 2678.27C1554.84 2655.28 1616.93 2633.59 1662.27 2617.76C1684.21 2610.09 1703.16 2603.48 1714.6 2597.4C1747.92 2579.71 1755.64 2545.53 1761.85 2518.07C1762.8 2513.87 1763.7 2509.9 1764.66 2506.06C1764.84 2505.3 1764.71 2504.5 1764.3 2503.84C1763.9 2503.17 1763.24 2502.69 1762.48 2502.5C1761.72 2502.31 1760.92 2502.42 1760.25 2502.82C1759.57 2503.22 1759.08 2503.86 1758.88 2504.62C1757.9 2508.52 1757 2512.52 1756.04 2516.76C1749.79 2544.41 1742.71 2575.75 1711.8 2592.15C1700.77 2598.01 1681.11 2604.88 1660.3 2612.15C1608.21 2630.34 1549.16 2650.97 1547.36 2677.88C1547.1 2681.81 1547.24 2687.51 1551.5 2691.65C1556.04 2696.07 1564.24 2697.88 1578.89 2697.88Z" fill="#BA3C86"/>
<path d="M2398.55 1923.93C2399.55 1923.99 2400.55 1923.85 2401.5 1923.51C2402.44 1923.17 2403.31 1922.65 2404.04 1921.97C2411.72 1914.3 2394.54 1890.54 2391.29 1887.29L1580.34 1077.49C1579.78 1076.95 1579.03 1076.65 1578.24 1076.65C1577.46 1076.66 1576.72 1076.97 1576.16 1077.52C1575.61 1078.07 1575.3 1078.82 1575.29 1079.6C1575.28 1080.38 1575.58 1081.13 1576.13 1081.69L2387.08 1891.5C2393.46 1897.88 2402.05 1915.55 2399.83 1917.77C2397.61 1919.98 2379.91 1911.41 2373.53 1905.03L1583.36 1115.97C1583.08 1115.69 1582.75 1115.46 1582.39 1115.31C1582.03 1115.15 1581.64 1115.07 1581.24 1115.06C1580.84 1115.06 1580.45 1115.14 1580.09 1115.29C1579.72 1115.44 1579.39 1115.66 1579.11 1115.94C1578.83 1116.21 1578.61 1116.55 1578.46 1116.91C1578.31 1117.28 1578.23 1117.67 1578.23 1118.06C1578.24 1118.46 1578.32 1118.85 1578.48 1119.21C1578.63 1119.58 1578.86 1119.9 1579.14 1120.18L2369.31 1909.23C2371.98 1911.9 2388.47 1923.93 2398.55 1923.93Z" fill="#BA3C86"/>
<path d="M1934.95 1517.95C1935.65 1501.15 1979.8 1490.34 1975.03 1481.08C1972.27 1475.91 1969.09 1470.98 1965.52 1466.33C1967.47 1462.92 1970.15 1459.99 1973.37 1457.74C1976.59 1455.49 1980.27 1453.98 1984.14 1453.31C2011.4 1449.35 2033.44 1472.91 2054.05 1471.02C2100.27 1457.05 2186.26 1416.02 2208.93 1412.85C2205.07 1405.25 2169.34 1318.85 2169.34 1318.85C2169.34 1318.85 2200.07 1261.08 2295.76 1208.65C2307.76 1229.81 2318.26 1251.79 2327.16 1274.42C2418.99 1498.43 2400.7 1504.68 2290.01 1537.63C2215 1559.95 2129.87 1553.73 2076.91 1562.13C2055.33 1565.55 2023.16 1579.08 2006.79 1579.32C1990.43 1579.55 1973.32 1572.55 1969.12 1562.75C1964.91 1552.95 1947.91 1559.25 1947.91 1545.6C1947.91 1531.95 1934.25 1534.75 1934.95 1517.95Z" fill="#FFC7E8"/>
<path d="M2069.54 1469.65C2037.53 1479.68 2040.1 1498.35 2026.08 1483.18C2012.06 1468.02 1994.6 1455.62 1974.47 1458.55C1986.13 1453.31 1997.34 1448.88 2014.16 1457.75C2030.99 1466.61 2049.92 1472.68 2069.54 1469.65Z" fill="white"/>
<path d="M2171.1 1326.1C2171.89 1326.1 2172.65 1325.79 2173.21 1325.23C2173.76 1324.67 2174.08 1323.92 2174.08 1323.13C2174.08 1295.62 2278.38 1215.78 2315.48 1204.13C2321.78 1202.14 2324.24 1202.76 2324.66 1203.36C2324.79 1203.54 2327.61 1208.16 2308.8 1232.51C2308.31 1233.14 2308.1 1233.93 2308.2 1234.71C2308.3 1235.49 2308.71 1236.2 2309.34 1236.68C2309.96 1237.17 2310.75 1237.38 2311.54 1237.28C2312.32 1237.18 2313.03 1236.77 2313.51 1236.14C2332.74 1211.24 2332.18 1203.72 2329.55 1199.94C2325.84 1194.63 2316.7 1197.5 2313.69 1198.44C2276.72 1210.05 2168.12 1290.74 2168.12 1323.12C2168.12 1323.51 2168.2 1323.9 2168.34 1324.26C2168.49 1324.62 2168.71 1324.95 2168.99 1325.23C2169.27 1325.5 2169.6 1325.72 2169.96 1325.87C2170.32 1326.02 2170.71 1326.1 2171.1 1326.1V1326.1Z" fill="#BA3C86"/>
<path d="M2326.89 1204.09C2327.42 1204.09 2327.94 1203.95 2328.4 1203.68C2328.86 1203.41 2329.24 1203.03 2329.49 1202.56C2329.75 1202.1 2329.88 1201.58 2329.87 1201.05C2329.86 1200.52 2329.7 1200 2329.42 1199.55C2303.77 1158.22 2214.85 1086.76 2170.41 1062.02C2169.72 1061.64 2168.91 1061.54 2168.15 1061.76C2167.39 1061.97 2166.74 1062.48 2166.36 1063.17C2165.98 1063.86 2165.88 1064.67 2166.1 1065.43C2166.31 1066.19 2166.82 1066.84 2167.51 1067.22C2210.4 1091.1 2299.59 1162.79 2324.36 1202.68C2324.63 1203.11 2325 1203.47 2325.44 1203.72C2325.89 1203.96 2326.39 1204.09 2326.89 1204.09V1204.09Z" fill="#BA3C86"/>
<path d="M2185 2537.85L2272.04 2527.87C2277.97 2569.13 2319.33 2627.47 2350.88 2675.07C2382.42 2722.67 2399.25 2759.07 2359.99 2768.17C2320.73 2777.27 2287.09 2765.37 2249.23 2719.17C2211.38 2672.97 2171.42 2658.97 2162.31 2628.87C2153.2 2598.77 2187.28 2560.02 2185 2537.85Z" fill="#FFC7E8"/>
<path d="M1827.63 1159.39C1828.38 1159.39 1829.1 1159.1 1829.65 1158.59C1830.2 1158.08 1830.54 1157.39 1830.6 1156.64C1834.65 1104.49 1849.71 1062.18 1876.66 1027.28C1877.14 1026.65 1877.36 1025.86 1877.25 1025.08C1877.15 1024.3 1876.74 1023.59 1876.12 1023.11C1875.49 1022.62 1874.7 1022.41 1873.92 1022.51C1873.13 1022.61 1872.42 1023.02 1871.94 1023.64C1844.27 1059.49 1828.8 1102.84 1824.66 1156.18C1824.6 1156.97 1824.85 1157.75 1825.36 1158.34C1825.88 1158.94 1826.61 1159.32 1827.4 1159.38C1827.47 1159.38 1827.55 1159.39 1827.63 1159.39V1159.39Z" fill="#BA3C86"/>
<path d="M1657.81 2689.07C1747.55 2680.66 1876.29 2678.1 1878.4 2650.79C1879.99 2630.17 1863.44 2589.9 1855.71 2552.97C1827.93 2569.81 1789.36 2574.69 1741.35 2568.17C1734.57 2579.44 1724.83 2588.64 1713.19 2594.78C1676.27 2614.38 1552.71 2642.22 1550.32 2678.08C1548.92 2699.09 1568.09 2697.46 1657.81 2689.07Z" fill="#BA3C86"/>
<path d="M1779.84 2573.91C1811.12 2573.91 1837.07 2567.77 1857.27 2555.51C1857.61 2555.31 1857.91 2555.04 1858.15 2554.73C1858.38 2554.41 1858.55 2554.05 1858.65 2553.67C1858.75 2553.29 1858.77 2552.89 1858.71 2552.5C1858.65 2552.11 1858.51 2551.74 1858.31 2551.4C1858.1 2551.06 1857.83 2550.77 1857.51 2550.54C1857.19 2550.31 1856.83 2550.14 1856.45 2550.05C1856.06 2549.96 1855.67 2549.95 1855.28 2550.01C1854.89 2550.07 1854.51 2550.21 1854.18 2550.42C1827.31 2566.71 1789.48 2571.69 1741.76 2565.22C1741.37 2565.17 1740.98 2565.19 1740.59 2565.28C1740.21 2565.38 1739.85 2565.55 1739.54 2565.79C1739.22 2566.03 1738.96 2566.33 1738.76 2566.66C1738.56 2567 1738.43 2567.38 1738.38 2567.77C1738.33 2568.16 1738.35 2568.56 1738.45 2568.94C1738.56 2569.32 1738.73 2569.67 1738.97 2569.99C1739.21 2570.3 1739.51 2570.56 1739.86 2570.75C1740.2 2570.95 1740.58 2571.07 1740.97 2571.12C1753.85 2572.92 1766.83 2573.86 1779.84 2573.91Z" fill="#BA3C86"/>
<path d="M2336.44 2774C2344.6 2773.95 2352.73 2772.96 2360.66 2771.07C2372.84 2768.24 2380.69 2762.61 2384 2754.32C2391.58 2735.3 2373.75 2704.2 2353.37 2673.42C2350.24 2668.7 2347.03 2663.89 2343.74 2658.97C2313.98 2614.43 2280.24 2563.95 2274.99 2527.45C2274.88 2526.67 2274.46 2525.96 2273.83 2525.49C2273.2 2525.02 2272.4 2524.81 2271.62 2524.93C2270.84 2525.04 2270.13 2525.46 2269.66 2526.09C2269.19 2526.72 2268.98 2527.51 2269.09 2528.29C2274.54 2566.13 2308.67 2617.21 2338.78 2662.28C2342.05 2667.17 2345.27 2671.99 2348.4 2676.71C2366.96 2704.72 2385.05 2735.59 2378.46 2752.11C2375.88 2758.58 2369.62 2762.88 2359.32 2765.27C2319 2774.62 2286.76 2760.27 2251.54 2717.27C2234.28 2696.21 2216.94 2682.05 2201.64 2669.56C2183.91 2655.08 2169.91 2643.65 2165.17 2628C2160.24 2611.72 2169.19 2591.81 2177.08 2574.25C2183.22 2560.61 2189.01 2547.72 2187.97 2537.53C2187.93 2537.14 2187.82 2536.76 2187.64 2536.41C2187.45 2536.06 2187.2 2535.75 2186.9 2535.5C2186.59 2535.25 2186.24 2535.07 2185.86 2534.95C2185.48 2534.84 2185.09 2534.8 2184.7 2534.84C2184.3 2534.88 2183.92 2535 2183.58 2535.19C2183.23 2535.38 2182.92 2535.63 2182.68 2535.94C2182.43 2536.24 2182.25 2536.6 2182.14 2536.98C2182.03 2537.36 2182 2537.75 2182.04 2538.14C2182.92 2546.74 2177.45 2558.92 2171.65 2571.81C2163.32 2590.32 2153.88 2611.3 2159.46 2629.71C2164.72 2647.1 2179.35 2659.04 2197.87 2674.16C2212.95 2686.47 2230.04 2700.43 2246.92 2721.04C2276.58 2757.24 2304.39 2774 2336.44 2774Z" fill="#BA3C86"/>
<path d="M2162.3 2628.88C2171.41 2658.96 2211.38 2672.96 2249.23 2719.16C2287.09 2765.35 2320.73 2777.27 2359.98 2768.17C2399.23 2759.06 2382.4 2722.67 2350.86 2675.07C2330.45 2644.25 2305.9 2608.92 2289.53 2576.65C2296.19 2603.19 2307.29 2626.28 2269.89 2630.94C2232.49 2635.6 2177.75 2586.63 2178.39 2563.94C2169.64 2584.37 2156.17 2608.58 2162.3 2628.88Z" fill="#BA3C86"/>
<path d="M2264.65 2634.24C2266.53 2634.24 2268.41 2634.13 2270.28 2633.9C2283.17 2632.29 2291.53 2628.38 2295.85 2621.94C2302.31 2612.32 2298.62 2598.81 2294.71 2584.51C2293.95 2581.71 2293.16 2578.84 2292.44 2575.94C2292.35 2575.55 2292.18 2575.19 2291.95 2574.87C2291.72 2574.55 2291.43 2574.28 2291.09 2574.08C2290.75 2573.87 2290.38 2573.74 2289.99 2573.68C2289.6 2573.62 2289.2 2573.64 2288.81 2573.73C2288.43 2573.83 2288.07 2574 2287.75 2574.23C2287.44 2574.47 2287.17 2574.77 2286.97 2575.11C2286.77 2575.45 2286.64 2575.82 2286.59 2576.21C2286.53 2576.6 2286.56 2577 2286.66 2577.38C2287.4 2580.33 2288.19 2583.23 2288.96 2586.07C2292.65 2599.59 2295.84 2611.26 2290.9 2618.63C2287.6 2623.55 2280.61 2626.61 2269.53 2627.99C2247.91 2630.68 2221.09 2614.26 2204.68 2599.38C2190.28 2586.32 2181.13 2572.45 2181.37 2564.03C2181.38 2563.64 2181.31 2563.25 2181.17 2562.88C2181.03 2562.52 2180.82 2562.19 2180.56 2561.9C2180.01 2561.33 2179.26 2560.99 2178.47 2560.97C2177.68 2560.95 2176.92 2561.24 2176.34 2561.78C2175.77 2562.33 2175.43 2563.07 2175.41 2563.86C2175.12 2574.25 2184.56 2589.18 2200.67 2603.78C2217.43 2618.98 2242.38 2634.24 2264.65 2634.24Z" fill="#BA3C86"/>
<path d="M2054.35 818.099C2050.03 837.072 2057.04 859.373 2068.73 862.223C2080.41 865.073 2103.04 868.469 2095.46 894.421C2087.89 920.373 2065.47 926.522 2066.05 954.767C2066.05 954.767 2117.45 915.998 2131.46 876.039C2102.14 847.806 2054.35 818.099 2054.35 818.099Z" fill="#BA3C86"/>
<path d="M2076.89 909.572C2079.88 909.652 2082.85 909.136 2085.64 908.053C2088.42 906.971 2090.96 905.344 2093.11 903.269C2096.7 899.506 2099.05 894.735 2099.84 889.598C2100.64 884.461 2099.83 879.204 2097.55 874.536C2095.02 869.232 2086.81 857.154 2065.02 859.548C2064.23 859.634 2063.51 860.028 2063.02 860.644C2062.52 861.26 2062.29 862.046 2062.38 862.831C2062.47 863.616 2062.86 864.334 2063.48 864.827C2064.09 865.321 2064.88 865.55 2065.67 865.464C2078.33 864.076 2087.99 868.308 2092.16 877.088C2093.9 880.646 2094.51 884.643 2093.94 888.557C2093.36 892.471 2091.62 896.12 2088.93 899.028C2082.81 905.046 2073.07 905.216 2061.52 899.506C2061.17 899.33 2060.79 899.225 2060.4 899.197C2060 899.169 2059.61 899.219 2059.24 899.343C2058.86 899.468 2058.52 899.664 2058.22 899.922C2057.93 900.18 2057.69 900.494 2057.51 900.845C2057.34 901.197 2057.23 901.58 2057.21 901.971C2057.18 902.363 2057.24 902.755 2057.36 903.127C2057.49 903.498 2057.69 903.84 2057.95 904.134C2058.21 904.428 2058.53 904.668 2058.88 904.84C2064.44 907.771 2070.61 909.39 2076.89 909.572Z" fill="#BA3C86"/>
<path d="M2078.47 895.115C2079.04 895.116 2079.59 894.953 2080.07 894.647C2081.91 893.643 2083.4 892.112 2084.36 890.251C2085.32 888.39 2085.7 886.284 2085.45 884.207C2084.73 878.852 2079.91 873.746 2073.71 871.803C2073.33 871.675 2072.93 871.624 2072.54 871.652C2072.14 871.68 2071.76 871.787 2071.4 871.966C2071.05 872.145 2070.73 872.393 2070.48 872.696C2070.22 872.998 2070.03 873.349 2069.91 873.727C2069.79 874.105 2069.75 874.503 2069.78 874.898C2069.82 875.292 2069.94 875.676 2070.12 876.025C2070.31 876.374 2070.57 876.683 2070.87 876.932C2071.18 877.182 2071.54 877.367 2071.92 877.477C2075.8 878.695 2079.14 881.993 2079.54 884.99C2079.62 885.945 2079.41 886.903 2078.93 887.734C2078.45 888.564 2077.73 889.228 2076.86 889.633C2076.32 889.98 2075.9 890.493 2075.67 891.096C2075.45 891.698 2075.42 892.358 2075.6 892.976C2075.79 893.594 2076.16 894.136 2076.68 894.522C2077.19 894.908 2077.82 895.116 2078.47 895.115H2078.47Z" fill="#BA3C86"/>
<path d="M1988.81 900.893C1975.14 902.293 1955.4 906.26 1944.07 896.343C1944.07 896.341 1953.75 932.39 1988.81 900.893Z" fill="white"/>
<path d="M1963.44 916.781C1971.51 916.781 1980.68 912.2 1990.81 903.096C1991.27 902.676 1991.59 902.119 1991.73 901.505C1991.86 900.892 1991.79 900.252 1991.54 899.678C1991.28 899.104 1990.85 898.626 1990.31 898.311C1989.76 897.996 1989.13 897.861 1988.51 897.926C1986.78 898.102 1984.96 898.322 1983.07 898.544C1970.54 900.038 1954.94 901.898 1946.03 894.098C1945.55 893.676 1944.94 893.42 1944.31 893.368C1943.67 893.316 1943.03 893.47 1942.49 893.807C1941.95 894.145 1941.53 894.649 1941.29 895.243C1941.06 895.838 1941.02 896.492 1941.19 897.108C1941.35 897.725 1945.41 912.313 1957.77 915.966C1959.61 916.51 1961.52 916.785 1963.44 916.781V916.781ZM1978.8 905.034C1971.34 910.09 1964.87 911.851 1959.49 910.274C1955.94 909.092 1952.9 906.742 1950.86 903.61C1959.42 906.625 1969.57 906.049 1978.8 905.034Z" fill="#BA3C86"/>
<path d="M2003.88 842.673C2010.35 833.946 1993.37 825.523 1984.61 822.371C1975.84 819.22 1967.78 822.022 1965.33 827.272C1962.88 832.522 1975.49 838.123 1981.45 840.572C1987.41 843.022 1997.93 850.723 2003.88 842.673Z" fill="white"/>
<path d="M1997.03 849.214C1998.85 849.248 2000.64 848.829 2002.26 847.996C2003.87 847.162 2005.26 845.94 2006.28 844.44C2007.21 843.265 2007.85 841.882 2008.13 840.409C2008.41 838.936 2008.32 837.418 2007.89 835.983C2005.23 827.233 1990.17 821.209 1985.62 819.573C1976.02 816.124 1965.93 818.954 1962.63 826.013C1962.26 826.799 1962.06 827.652 1962.04 828.52C1962.02 829.387 1962.18 830.25 1962.51 831.053C1964.08 835.073 1969.73 838.972 1980.32 843.324C1981.29 843.72 1982.48 844.315 1983.73 844.948C1987.29 846.729 1992.25 849.214 1997.03 849.214ZM1977.32 824.026C1979.46 824.043 1981.59 824.431 1983.6 825.17C1991.59 828.044 2000.81 833.195 2002.18 837.711C2002.35 838.258 2002.38 838.839 2002.26 839.399C2002.13 839.958 2001.87 840.477 2001.49 840.904C1998.34 845.16 1993.25 843.06 1986.41 839.631C1985.05 838.95 1983.76 838.306 1982.59 837.822C1970.71 832.939 1968.47 829.95 1968.06 828.897C1967.97 828.669 1967.99 828.611 1968.03 828.536C1969.24 825.945 1972.77 824.026 1977.32 824.026V824.026Z" fill="#BA3C86"/>
<path d="M2207.84 1415.82C2208.35 1415.82 2208.86 1415.69 2209.31 1415.44C2209.75 1415.18 2210.13 1414.82 2210.39 1414.38C2210.66 1413.94 2210.8 1413.44 2210.81 1412.92C2210.83 1412.41 2210.71 1411.9 2210.46 1411.45C2187.62 1368.68 2158.97 1278.78 2158.68 1277.88C2158.45 1277.13 2157.92 1276.5 2157.22 1276.14C2156.51 1275.77 2155.7 1275.7 2154.94 1275.94C2154.19 1276.18 2153.56 1276.71 2153.2 1277.41C2152.84 1278.11 2152.76 1278.93 2153 1279.68C2153.29 1280.59 2182.1 1371 2205.21 1414.25C2205.46 1414.72 2205.84 1415.12 2206.3 1415.4C2206.77 1415.68 2207.3 1415.82 2207.84 1415.82V1415.82Z" fill="#BA3C86"/>
<path d="M1984.61 822.371C1984.84 830.305 1979.4 836.743 1974.87 837.608C1969.09 834.174 1959.53 824.619 1971.71 821.959C1980.23 820.097 1984.61 822.371 1984.61 822.371Z" fill="#BA3C86"/>
<path d="M2002.02 801.955C1990.33 797.056 1979.82 802.655 1980.28 805.921C1980.75 809.188 1994.54 808.256 1999.91 811.522C2005.29 814.789 2015.1 809.422 2002.02 801.955Z" fill="#BA3C86"/>
<path d="M1936.82 931.224C1952.23 946.478 2013.7 952.974 2014.4 968.373C2015.1 983.771 1968.49 974.372 1959.49 965.641" fill="#BA3C86"/>
<path d="M2361.71 1363.02C2364.31 1402.92 2385.34 1467.32 2335.34 1462.66C2285.34 1457.99 2308.7 1504.19 2281.6 1515.86C2254.49 1527.52 2260.1 1543.38 2260.1 1543.38C2260.1 1543.38 2367.29 1524.08 2379.73 1491.26C2392.18 1458.45 2375.92 1390.77 2361.71 1363.02Z" fill="white"/>
<path d="M2006.08 1582.3C2006.33 1582.3 2006.59 1582.3 2006.85 1582.3C2016.3 1582.16 2030.13 1577.98 2044.77 1573.56C2055.45 1570.06 2066.34 1567.22 2077.37 1565.07C2096.17 1562.1 2119.58 1560.94 2144.36 1559.73C2190.3 1557.47 2242.36 1554.92 2290.86 1540.49C2339.07 1526.14 2370.92 1516.66 2383.27 1490.88C2399.7 1456.6 2379.16 1393.41 2329.92 1273.3C2320.9 1251.01 2310.55 1229.28 2298.92 1208.23C2298.73 1207.89 2298.48 1207.59 2298.17 1207.35C2297.86 1207.1 2297.51 1206.92 2297.14 1206.81C2296.76 1206.71 2296.37 1206.67 2295.98 1206.72C2295.59 1206.76 2295.21 1206.88 2294.87 1207.07C2294.53 1207.26 2294.23 1207.52 2293.98 1207.82C2293.74 1208.13 2293.56 1208.48 2293.45 1208.86C2293.34 1209.23 2293.31 1209.62 2293.36 1210.01C2293.4 1210.4 2293.52 1210.78 2293.71 1211.12C2305.23 1231.96 2315.48 1253.48 2324.4 1275.55C2371.94 1391.5 2393.26 1456.23 2377.9 1488.3C2366.69 1511.7 2335.84 1520.88 2289.16 1534.78C2241.35 1549 2189.67 1551.54 2144.07 1553.78C2119.12 1555 2095.56 1556.16 2076.44 1559.19C2065.13 1561.38 2053.98 1564.27 2043.04 1567.86C2029.44 1571.97 2015.37 1576.22 2006.76 1576.34C1991.14 1576.58 1975.45 1569.94 1971.86 1561.58C1969.43 1555.91 1963.84 1554.4 1959.35 1553.19C1953.64 1551.66 1950.89 1550.69 1950.89 1545.6C1950.89 1537.89 1947.12 1534.41 1943.8 1531.34C1940.49 1528.27 1937.61 1525.61 1937.92 1518.07C1938.23 1510.66 1950.85 1503.58 1960.98 1497.88C1971.82 1491.79 1981.18 1486.53 1977.66 1479.72C1975.16 1475 1972.31 1470.47 1969.12 1466.18C1970.89 1463.57 1973.17 1461.35 1975.83 1459.65C1978.48 1457.94 1981.45 1456.79 1984.56 1456.26C1999.03 1454.16 2012.35 1460.05 2025.22 1465.75C2035.44 1470.28 2045.08 1474.59 2054.22 1473.99C2066.35 1473.23 2088.48 1463.53 2116.49 1451.24C2158.4 1432.86 2210.56 1409.99 2251.35 1407.75C2251.74 1407.73 2252.13 1407.63 2252.48 1407.46C2252.83 1407.3 2253.15 1407.06 2253.41 1406.77C2253.67 1406.48 2253.87 1406.14 2254 1405.77C2254.13 1405.4 2254.19 1405.01 2254.16 1404.62C2254.11 1403.83 2253.75 1403.1 2253.17 1402.58C2252.58 1402.05 2251.81 1401.78 2251.03 1401.81C2209.15 1404.1 2156.44 1427.22 2114.08 1445.79C2087.7 1457.36 2064.92 1467.36 2053.84 1468.05C2046.16 1468.56 2037.15 1464.54 2027.62 1460.31C2014.61 1454.55 1999.86 1448.02 1983.68 1450.37C1979.34 1451.09 1975.21 1452.78 1971.61 1455.31C1968 1457.83 1965.01 1461.13 1962.85 1464.96C1962.58 1465.47 1962.47 1466.04 1962.53 1466.61C1962.58 1467.18 1962.8 1467.72 1963.15 1468.17C1966.6 1472.67 1969.68 1477.45 1972.35 1482.45C1972.53 1484.56 1963.1 1489.86 1958.04 1492.7C1946.02 1499.44 1932.4 1507.11 1931.95 1517.83C1931.52 1528.11 1936.08 1532.33 1939.74 1535.71C1942.74 1538.48 1944.91 1540.49 1944.91 1545.6C1944.91 1555.48 1952.35 1557.48 1957.78 1558.94C1962.31 1560.16 1965.15 1561.11 1966.36 1563.92C1971.37 1575.52 1990.31 1582.3 2006.08 1582.3Z" fill="#BA3C86"/>
<path d="M2061.85 1019.84C2054 1047.54 1952.73 1075.43 1947.11 1011.61C1947.11 1011.61 1987.81 1010.42 2001.33 1011.34C2016.58 1012.36 2061.85 1019.84 2061.85 1019.84Z" fill="#FFC7E8"/>
<path d="M2101.52 1213.49C2105.62 1213.48 2109.6 1212.07 2112.78 1209.49C2115.96 1206.91 2118.16 1203.31 2119.01 1199.31L2121.02 1189.75C2121.99 1185.12 2121.08 1180.29 2118.49 1176.33C2115.9 1172.36 2111.84 1169.59 2107.2 1168.61L2078.19 1162.53C2073.55 1161.56 2068.72 1162.47 2064.75 1165.05C2060.78 1167.64 2058 1171.7 2057.02 1176.33L2055.01 1185.88C2054.53 1188.18 2054.5 1190.54 2054.94 1192.85C2055.37 1195.15 2056.25 1197.35 2057.54 1199.31C2058.82 1201.28 2060.48 1202.97 2062.42 1204.29C2064.36 1205.61 2066.54 1206.54 2068.83 1207.02L2097.84 1213.11C2099.05 1213.36 2100.29 1213.49 2101.52 1213.49V1213.49ZM2074.51 1174.05C2074.92 1174.05 2075.33 1174.09 2075.74 1174.17L2104.75 1180.26C2106.29 1180.58 2107.64 1181.51 2108.51 1182.83C2109.37 1184.15 2109.68 1185.76 2109.35 1187.3L2107.34 1196.86C2107.02 1198.4 2106.09 1199.76 2104.77 1200.62C2103.44 1201.48 2101.83 1201.78 2100.29 1201.46L2071.28 1195.38C2069.73 1195.05 2068.38 1194.13 2067.51 1192.81C2066.65 1191.49 2066.34 1189.88 2066.67 1188.33L2068.68 1178.78C2068.96 1177.44 2069.69 1176.24 2070.76 1175.38C2071.82 1174.52 2073.14 1174.05 2074.51 1174.05V1174.05Z" fill="#BA3C86"/>
<path d="M1832.33 1195.16C1832.66 1195.16 1832.98 1195.16 1833.31 1195.13L1862.91 1193.53C1865.25 1193.4 1867.55 1192.81 1869.67 1191.8C1871.78 1190.79 1873.68 1189.37 1875.25 1187.62C1876.81 1185.88 1878.02 1183.84 1878.8 1181.63C1879.58 1179.42 1879.92 1177.07 1879.79 1174.73L1879.26 1164.98C1879.13 1162.64 1878.54 1160.35 1877.53 1158.23C1876.52 1156.12 1875.09 1154.23 1873.35 1152.66C1871.6 1151.09 1869.56 1149.89 1867.35 1149.11C1865.13 1148.33 1862.78 1148 1860.44 1148.12L1830.85 1149.73C1828.5 1149.86 1826.21 1150.44 1824.09 1151.46C1821.97 1152.47 1820.08 1153.89 1818.51 1155.64C1816.94 1157.38 1815.73 1159.42 1814.95 1161.63C1814.17 1163.84 1813.84 1166.18 1813.96 1168.52L1814.5 1178.27C1814.75 1182.83 1816.74 1187.12 1820.05 1190.26C1823.37 1193.4 1827.76 1195.15 1832.33 1195.16V1195.16ZM1832.67 1183.26C1831.09 1183.34 1829.54 1182.79 1828.37 1181.74C1827.19 1180.69 1826.48 1179.21 1826.39 1177.64L1825.86 1167.89C1825.78 1166.31 1826.32 1164.77 1827.38 1163.59C1828.43 1162.42 1829.91 1161.71 1831.49 1161.63L1861.08 1160.02C1862.66 1159.94 1864.2 1160.49 1865.37 1161.54C1866.55 1162.59 1867.26 1164.06 1867.35 1165.64L1867.88 1175.39C1867.93 1176.17 1867.82 1176.95 1867.56 1177.69C1867.3 1178.42 1866.89 1179.1 1866.37 1179.68C1865.85 1180.27 1865.22 1180.74 1864.51 1181.08C1863.81 1181.42 1863.04 1181.61 1862.26 1181.65L1832.67 1183.26Z" fill="#BA3C86"/>
<path d="M1547 1052.44C1547.12 1052.44 1547.24 1052.43 1547.36 1052.42C1548.14 1052.33 1548.86 1051.93 1549.35 1051.31C1549.84 1050.69 1550.06 1049.9 1549.97 1049.12C1548.33 1035.08 1547.52 1020.97 1547.53 1006.84C1547.84 994.892 1542.89 988.87 1538.68 985.923C1536.3 984.237 1533.54 983.14 1530.65 982.722C1527.75 982.305 1524.8 982.579 1522.03 983.521C1521.66 983.656 1521.31 983.864 1521.02 984.134C1520.73 984.403 1520.49 984.728 1520.33 985.09C1520.16 985.452 1520.07 985.843 1520.06 986.241C1520.05 986.638 1520.12 987.034 1520.27 987.404C1520.41 987.774 1520.63 988.112 1520.91 988.396C1521.18 988.681 1521.52 988.907 1521.88 989.062C1522.25 989.216 1522.64 989.296 1523.04 989.296C1523.44 989.295 1523.83 989.216 1524.2 989.061C1526.05 988.47 1528.02 988.318 1529.94 988.619C1531.86 988.92 1533.68 989.665 1535.26 990.794C1539.58 993.821 1541.77 999.323 1541.58 1006.69C1541.54 1021.1 1542.37 1035.5 1544.05 1049.82C1544.14 1050.54 1544.48 1051.21 1545.03 1051.69C1545.57 1052.17 1546.28 1052.44 1547 1052.44V1052.44Z" fill="#BA3C86"/>
<path d="M1680.72 1422.98C1697.55 1410.61 1684 1392.18 1656.89 1387.05C1629.79 1381.91 1594.27 1372.58 1592.87 1347.38C1591.47 1322.18 1547.83 1293.77 1547.83 1293.77C1547.83 1293.77 1584.58 1400.23 1624.87 1423.54C1645.67 1435.58 1680.72 1422.98 1680.72 1422.98Z" fill="white"/>
<path d="M2105.76 1250.82C2107.23 1250.82 2108.67 1250.45 2109.96 1249.76C2111.26 1249.07 2112.36 1248.07 2113.17 1246.85C2113.99 1245.64 2114.49 1244.24 2114.64 1242.78C2114.78 1241.32 2114.56 1239.85 2114.01 1238.49C2113.59 1237.5 2113.16 1236.49 2112.72 1235.47C2109.38 1227.66 2105.93 1219.58 2107.38 1208.82C2107.44 1208.35 2107.4 1207.88 2107.24 1207.43C2107.08 1206.99 2106.83 1206.59 2106.49 1206.27C2106.14 1205.94 2105.73 1205.7 2105.28 1205.57C2104.83 1205.43 2104.35 1205.41 2103.89 1205.49C2096.98 1206.77 2072.94 1200.7 2064.26 1198.26C2063.63 1198.08 2062.97 1198.11 2062.37 1198.34C2061.77 1198.58 2061.26 1199 2060.92 1199.55C2055.1 1208.87 2047.94 1213.64 2041.02 1218.24L2039.76 1219.09C2038.32 1220.05 2037.2 1221.4 2036.52 1222.99C2035.84 1224.58 2035.64 1226.33 2035.93 1228.02C2036.23 1229.72 2037.01 1231.3 2038.19 1232.57C2039.36 1233.83 2040.88 1234.73 2042.56 1235.15L2103.55 1250.55C2104.27 1250.73 2105.01 1250.82 2105.76 1250.82V1250.82ZM2101.14 1211.58C2100.58 1222.22 2104.1 1230.45 2107.24 1237.81C2107.67 1238.8 2108.09 1239.79 2108.5 1240.78C2108.72 1241.29 2108.78 1241.84 2108.69 1242.38C2108.61 1242.93 2108.36 1243.43 2108 1243.84C2107.64 1244.27 2107.17 1244.58 2106.64 1244.75C2106.11 1244.91 2105.54 1244.93 2105.01 1244.79L2044.02 1229.38C2043.45 1229.25 2042.95 1228.95 2042.55 1228.53C2042.16 1228.1 2041.9 1227.57 2041.81 1227C2041.7 1226.44 2041.77 1225.86 2041.99 1225.33C2042.22 1224.81 2042.59 1224.36 2043.07 1224.05L2044.32 1223.21C2050.99 1218.78 2058.48 1213.79 2064.75 1204.58C2071.52 1206.4 2090.78 1211.4 2101.14 1211.58Z" fill="#BA3C86"/>
<path d="M1817.24 1230.09C1817.49 1230.09 1817.74 1230.08 1817.99 1230.06L1880.7 1225.02C1882.35 1224.89 1883.93 1224.3 1885.27 1223.32C1886.6 1222.35 1887.64 1221.02 1888.26 1219.49C1888.89 1217.95 1889.07 1216.28 1888.8 1214.65C1888.53 1213.02 1887.8 1211.49 1886.71 1210.25C1886 1209.43 1885.26 1208.62 1884.53 1207.8C1878.85 1201.48 1872.97 1194.94 1870.87 1184.28C1870.78 1183.82 1870.58 1183.39 1870.29 1183.02C1870 1182.65 1869.63 1182.36 1869.2 1182.16C1868.78 1181.96 1868.31 1181.87 1867.84 1181.89C1867.37 1181.9 1866.91 1182.03 1866.5 1182.26C1860.36 1185.69 1835.65 1187.68 1826.64 1188.16C1826 1188.19 1825.38 1188.43 1824.89 1188.85C1824.39 1189.26 1824.05 1189.82 1823.9 1190.45C1821.4 1201.16 1816.15 1207.96 1811.09 1214.55L1810.17 1215.75C1809.16 1217.07 1808.54 1218.65 1808.38 1220.3C1808.22 1221.95 1808.53 1223.62 1809.26 1225.11C1810 1226.6 1811.13 1227.85 1812.54 1228.73C1813.96 1229.61 1815.58 1230.08 1817.25 1230.09H1817.24ZM1865.85 1188.91C1868.75 1199.16 1874.74 1205.82 1880.09 1211.77C1880.82 1212.58 1881.53 1213.38 1882.24 1214.17C1882.6 1214.58 1882.85 1215.09 1882.94 1215.63C1883.03 1216.17 1882.96 1216.73 1882.75 1217.23C1882.55 1217.75 1882.2 1218.2 1881.75 1218.53C1881.31 1218.86 1880.77 1219.05 1880.22 1219.09L1817.51 1224.13C1816.94 1224.18 1816.36 1224.06 1815.85 1223.78C1815.34 1223.51 1814.92 1223.09 1814.65 1222.58C1814.37 1222.08 1814.24 1221.51 1814.29 1220.93C1814.33 1220.36 1814.54 1219.82 1814.9 1219.37L1815.81 1218.18C1820.69 1211.83 1826.17 1204.7 1829.14 1193.98C1836.14 1193.54 1855.99 1192.07 1865.85 1188.91V1188.91Z" fill="#BA3C86"/>
<path d="M2167.44 1066.61C2168.08 1066.62 2168.71 1066.41 2169.23 1066.02C2169.74 1065.64 2170.12 1065.1 2170.3 1064.48C2170.48 1063.86 2170.46 1063.2 2170.23 1062.6C2170.01 1062 2169.6 1061.48 2169.05 1061.14C2136.41 1040.28 2100.34 1025.32 2062.5 1016.94C2062.12 1016.85 2061.72 1016.83 2061.33 1016.9C2060.94 1016.96 2060.57 1017.1 2060.24 1017.31C2059.9 1017.52 2059.61 1017.79 2059.39 1018.11C2059.16 1018.43 2059 1018.8 2058.91 1019.18C2058.82 1019.57 2058.81 1019.96 2058.88 1020.35C2058.95 1020.74 2059.1 1021.11 2059.31 1021.44C2059.52 1021.77 2059.8 1022.06 2060.12 1022.28C2060.44 1022.5 2060.81 1022.66 2061.2 1022.74C2098.35 1030.97 2133.77 1045.66 2165.83 1066.14C2166.31 1066.45 2166.87 1066.61 2167.44 1066.61V1066.61Z" fill="#BA3C86"/>
<path d="M1702.49 1206.65C1702.99 1206.65 1703.49 1206.53 1703.92 1206.29C1704.36 1206.05 1704.74 1205.7 1705.01 1205.28C1708.74 1199.46 1712.86 1192.61 1717.98 1183.72C1718.38 1183.04 1718.48 1182.22 1718.28 1181.46C1718.08 1180.7 1717.58 1180.05 1716.89 1179.65C1716.21 1179.26 1715.39 1179.15 1714.63 1179.36C1713.86 1179.56 1713.21 1180.06 1712.82 1180.75C1707.75 1189.55 1703.67 1196.32 1699.99 1202.07C1699.7 1202.52 1699.54 1203.03 1699.52 1203.57C1699.5 1204.1 1699.63 1204.63 1699.88 1205.1C1700.14 1205.56 1700.52 1205.95 1700.98 1206.23C1701.44 1206.5 1701.96 1206.64 1702.49 1206.64V1206.65Z" fill="#BA3C86"/>
<path d="M1661.99 1242.15C1670.99 1242.15 1679.97 1237.02 1689.33 1226.58C1689.86 1225.99 1690.13 1225.22 1690.08 1224.43C1690.04 1223.64 1689.68 1222.9 1689.09 1222.37C1688.5 1221.85 1687.73 1221.58 1686.94 1221.62C1686.15 1221.67 1685.41 1222.02 1684.89 1222.61C1675.45 1233.14 1667.18 1237.37 1658.87 1235.92C1638.69 1232.41 1614.5 1194.34 1582.78 1116.13C1585.87 1088.35 1577.98 1064.24 1571.64 1044.84C1570.3 1040.74 1569.03 1036.87 1567.92 1033.15C1561.5 1011.61 1554.48 1005.98 1545.23 1003.86C1544.46 1003.7 1543.66 1003.84 1543 1004.26C1542.34 1004.68 1541.87 1005.34 1541.7 1006.1C1541.52 1006.87 1541.65 1007.67 1542.07 1008.33C1542.48 1009 1543.14 1009.48 1543.9 1009.66C1550.01 1011.05 1556.02 1014.04 1562.21 1034.85C1563.35 1038.65 1564.62 1042.55 1565.98 1046.69C1572.53 1066.7 1579.94 1089.39 1576.77 1116.19C1576.72 1116.69 1576.78 1117.19 1576.97 1117.66C1610.58 1200.64 1634.77 1237.76 1657.85 1241.78C1659.21 1242.02 1660.6 1242.14 1661.99 1242.15V1242.15Z" fill="#BA3C86"/>
<path d="M1810.21 1278.42C1810.74 1278.42 1811.26 1278.28 1811.72 1278.01C1812.18 1277.75 1812.55 1277.36 1812.81 1276.9C1813.07 1276.44 1813.2 1275.92 1813.19 1275.39C1813.18 1274.86 1813.03 1274.35 1812.75 1273.9C1782.84 1225.05 1715.91 1178.13 1702.25 1168.86C1712.02 1152.78 1772.63 1059.18 1875.97 1028.05C1899.11 1020.64 1923.07 1016.11 1947.31 1014.58C1947.79 1014.55 1948.26 1014.4 1948.67 1014.15C1949.08 1013.9 1949.42 1013.56 1949.67 1013.15C1957.42 1000.22 1962.68 957.613 1957.28 951.536C1952.07 945.683 1947.27 941.155 1943.04 937.156C1927.77 922.723 1922.06 917.323 1938.08 885.311C1942.49 876.497 1934.96 867.933 1927.68 859.65C1922.45 853.7 1917.04 847.552 1917.71 842.865C1918.11 840.112 1919.25 839.682 1926.3 839.781C1934.25 839.843 1946.26 839.979 1956.13 826.975C1962.26 818.894 1964.69 809.743 1967.03 800.895C1970.2 788.926 1973.2 777.585 1984.67 767.823L2128.11 875.855C2123.15 895.317 2106.53 910.839 2090.46 925.867C2077.81 937.692 2065.86 948.86 2059.19 961.839C2052.52 974.818 2054.13 993.857 2058.9 1020.38C2058.97 1020.76 2059.12 1021.13 2059.33 1021.46C2059.54 1021.79 2059.82 1022.07 2060.14 1022.29C2060.46 1022.52 2060.82 1022.67 2061.2 1022.76C2061.58 1022.84 2061.98 1022.85 2062.36 1022.78C2062.75 1022.71 2063.12 1022.56 2063.45 1022.35C2063.78 1022.14 2064.06 1021.87 2064.28 1021.55C2064.51 1021.23 2064.67 1020.87 2064.75 1020.48C2064.83 1020.1 2064.84 1019.71 2064.77 1019.32C2060.34 994.729 2058.61 976.002 2064.49 964.554C2070.68 952.498 2082.27 941.672 2094.53 930.209C2111.77 914.088 2129.61 897.418 2134.37 875.269C2134.49 874.715 2134.45 874.138 2134.25 873.607C2134.05 873.075 2133.7 872.612 2133.25 872.271L1986.39 761.67C1985.87 761.276 1985.23 761.065 1984.58 761.07C1983.92 761.075 1983.28 761.296 1982.77 761.698C1968.24 773.003 1964.69 786.413 1961.27 799.382C1958.97 808.055 1956.81 816.241 1951.38 823.381C1943.32 833.998 1933.89 833.906 1926.35 833.831C1920.09 833.756 1913 833.696 1911.81 842.024C1910.76 849.424 1917.08 856.618 1923.2 863.578C1929.18 870.38 1935.37 877.415 1932.75 882.65C1915.43 917.229 1921.73 925.211 1938.94 941.478C1943.08 945.393 1947.77 949.828 1952.81 955.489C1955.2 959.705 1952.31 995.047 1945.28 1008.76C1921.12 1010.41 1897.24 1014.98 1874.18 1022.37C1759.25 1057.01 1696.26 1167.21 1695.64 1168.32C1695.27 1168.97 1695.16 1169.75 1695.34 1170.48C1695.52 1171.21 1695.97 1171.84 1696.6 1172.26C1697.39 1172.78 1775.66 1224.76 1807.66 1277.01C1807.93 1277.44 1808.3 1277.8 1808.75 1278.05C1809.2 1278.3 1809.7 1278.43 1810.21 1278.42Z" fill="#BA3C86"/>
<path d="M826.51 599.555C799.417 575.57 783.399 549.43 790.733 541.17C798.066 532.909 825.974 545.656 853.067 569.641C880.159 593.625 896.177 619.765 888.844 628.026C881.51 636.286 853.602 623.539 826.51 599.555Z" fill="white"/>
<path d="M790.731 541.176C801.947 527.175 1013.3 313.089 1033.86 298.159C1054.42 283.228 1141.74 322.857 1131.68 384.227C1127.91 407.253 907.465 618.297 888.833 628.031" fill="white"/>
<path d="M888.845 631.006C889.325 631.006 889.798 630.89 890.224 630.667C900.569 625.261 964.607 565.581 1017.93 513.234C1060.5 471.445 1132.27 399.173 1134.64 384.712C1139.38 355.742 1123.2 326.753 1091.36 307.163C1067.84 292.698 1042.92 287.897 1032.1 295.753C1012.44 310.033 802.149 522.16 788.403 539.31C787.909 539.926 787.681 540.712 787.768 541.497C787.855 542.281 788.25 542.998 788.867 543.492C789.484 543.985 790.271 544.213 791.057 544.126C791.842 544.039 792.561 543.644 793.055 543.028C801.281 532.767 1014.35 315.999 1035.61 300.562C1043.03 295.178 1065.26 298.103 1088.23 312.231C1099.35 319.075 1135.18 344.466 1128.75 383.747C1127.29 392.672 1082.15 441.843 1013.75 508.992C955.272 566.404 896.259 620.798 887.463 625.396C886.872 625.704 886.401 626.203 886.128 626.81C885.854 627.418 885.792 628.099 885.952 628.746C886.112 629.393 886.485 629.967 887.011 630.377C887.537 630.787 888.186 631.008 888.853 631.006H888.845Z" fill="#BA3C86"/>
<path d="M1090.95 310.317C1099.18 342.326 1107.24 375.569 1061.68 381.519C1016.12 387.469 1025.58 407.769 1012.61 439.269C999.643 470.769 949.52 424.219 934.799 453.621C920.078 483.022 971.596 539.722 900.45 543.929C829.304 548.136 835.64 556.144 835.64 556.144C835.64 556.144 786.953 541.434 814.761 588.334C804.831 580.203 782.586 549.449 796.04 535.274C807.796 522.895 1035.11 295.905 1035.11 295.905C1035.11 295.905 1058.24 289.684 1090.95 310.317Z" fill="#FFC7E8"/>
<path d="M888.845 631.006C889.325 631.006 889.798 630.89 890.224 630.667C900.569 625.261 964.607 565.581 1017.93 513.234C1060.5 471.445 1132.27 399.173 1134.64 384.712C1139.38 355.742 1123.2 326.753 1091.36 307.163C1067.84 292.698 1042.92 287.897 1032.1 295.753C1012.44 310.033 802.149 522.16 788.403 539.31C787.909 539.926 787.681 540.712 787.768 541.497C787.855 542.281 788.25 542.998 788.867 543.492C789.484 543.985 790.271 544.213 791.057 544.126C791.842 544.039 792.561 543.644 793.055 543.028C801.281 532.767 1014.35 315.999 1035.61 300.562C1043.03 295.178 1065.26 298.103 1088.23 312.231C1099.35 319.075 1135.18 344.466 1128.75 383.747C1127.29 392.672 1082.15 441.843 1013.75 508.992C955.272 566.404 896.259 620.798 887.463 625.396C886.872 625.704 886.401 626.203 886.128 626.81C885.854 627.418 885.792 628.099 885.952 628.746C886.112 629.393 886.485 629.967 887.011 630.377C887.537 630.787 888.186 631.008 888.853 631.006H888.845Z" fill="#BA3C86"/>
<path d="M881.864 633.523C883.562 633.64 885.266 633.386 886.856 632.778C888.446 632.17 889.885 631.224 891.072 630.005C900.979 618.842 879.902 589.429 855.041 567.42C841.724 555.631 827.759 546.108 815.727 540.615C802.467 534.559 793.053 534.069 788.502 539.202C778.592 550.365 799.669 579.778 824.529 601.785C837.837 613.577 851.811 623.097 863.843 628.593C869.446 631.458 875.581 633.137 881.864 633.523V633.523ZM797.762 541.632C801.164 541.632 806.243 542.822 813.254 546.023C824.774 551.281 838.204 560.46 851.092 571.87C880.106 597.557 891.338 620.74 886.619 626.058C884.666 628.259 878.311 628.654 866.328 623.182C854.808 617.924 841.378 608.743 828.49 597.335C799.476 571.65 788.246 548.467 792.965 543.149C793.617 542.58 794.379 542.151 795.205 541.89C796.03 541.629 796.901 541.541 797.762 541.632V541.632Z" fill="#BA3C86"/>
<path d="M814.541 635.199L860.799 681.292C874.206 694.639 892.366 702.133 911.297 702.133C930.228 702.133 948.387 694.639 961.795 681.292L1014.98 628.337C1019.96 623.362 1025.87 619.415 1032.38 616.722C1038.88 614.029 1045.86 612.643 1052.9 612.643C1059.94 612.643 1066.92 614.029 1073.42 616.722C1079.93 619.415 1085.84 623.362 1090.82 628.337L1466.6 1003.59C1467.37 996.707 1468.5 988.654 1469.95 979.174C1470.31 976.833 1470.67 974.612 1471.03 972.529L1104.86 606.877C1098.03 600.061 1089.93 594.655 1081.02 590.966C1072.1 587.277 1062.54 585.379 1052.89 585.379C1043.24 585.379 1033.68 587.277 1024.76 590.966C1015.85 594.655 1007.75 600.061 1000.92 606.877L947.812 659.932C938.126 669.599 924.992 675.03 911.297 675.03C897.602 675.03 884.467 669.599 874.781 659.932L835.972 621.177C834.864 620.073 833.986 618.762 833.386 617.319C832.787 615.876 832.478 614.33 832.478 612.767C832.478 611.205 832.787 609.658 833.386 608.215C833.986 606.772 834.864 605.461 835.972 604.358C835.972 604.358 848.206 596.444 848.206 592.14C848.206 585.873 836.687 573.735 830.45 574.389C824.849 574.984 814.521 590.296 814.521 590.296C811.566 593.244 809.223 596.744 807.624 600.597C806.026 604.451 805.204 608.581 805.206 612.752C805.208 616.922 806.033 621.052 807.635 624.904C809.237 628.755 811.584 632.254 814.541 635.199V635.199Z" fill="#FFC7E8"/>
<path d="M1644.4 1432.83H1644.78C1694.98 1432.24 1746.28 1390.86 1772.39 1366.24C1772.67 1365.97 1772.9 1365.65 1773.06 1365.3C1773.22 1364.94 1773.31 1364.56 1773.32 1364.16C1773.33 1363.77 1773.27 1363.38 1773.13 1363.02C1772.99 1362.65 1772.78 1362.32 1772.51 1362.04C1772.24 1361.75 1771.92 1361.52 1771.56 1361.36C1771.21 1361.2 1770.82 1361.12 1770.43 1361.1C1770.04 1361.09 1769.65 1361.16 1769.28 1361.3C1768.92 1361.44 1768.58 1361.65 1768.3 1361.92C1742.82 1385.93 1692.89 1426.31 1644.71 1426.88H1644.4C1616.52 1426.88 1583.95 1381.2 1552.64 1298.16C1525.75 1226.82 1506.89 1146.11 1502.79 1106.39C1501.25 1091.4 1480.71 1051.3 1473.35 1042.58C1466.64 1034.62 1466.54 1021.09 1472.89 979.63C1477.54 949.249 1482.49 943.325 1485.03 942.498C1487.4 941.704 1491.19 945.11 1494.22 948.146C1498.93 952.861 1496.92 966.292 1494.14 984.882C1493.46 989.495 1492.71 994.468 1492 999.783C1491.9 1000.56 1492.12 1001.34 1492.59 1001.96C1493.07 1002.58 1493.78 1002.99 1494.56 1003.09C1495.33 1003.2 1496.12 1002.99 1496.75 1002.52C1497.37 1002.05 1497.79 1001.35 1497.9 1000.58C1498.61 995.289 1499.35 990.346 1500.04 985.757C1503.19 964.693 1505.27 950.776 1498.45 943.943C1493.72 939.209 1488.6 935.066 1483.18 936.839C1475.98 939.191 1471.14 951.714 1467 978.73C1460.25 1022.8 1460.62 1036.71 1468.79 1046.41C1476.39 1055.42 1495.52 1093.97 1496.86 1107C1500.99 1147.09 1519.99 1228.44 1547.06 1300.25C1569.89 1360.79 1605.28 1432.83 1644.4 1432.83Z" fill="#BA3C86"/>
<path d="M2197.5 1278.78C2185.21 1284.38 2159.9 1272.5 2156.16 1276.35C2158.62 1285.68 2166.23 1312.03 2171.4 1323.83C2167.29 1312.26 2194 1288.5 2197.5 1278.78Z" fill="#BA3C86"/>
<path d="M1934.13 741.589C2027.85 784.384 2138.1 889.175 2138.1 889.175C2138.1 860.813 2201.82 794.745 2118.14 729.016C2032.31 661.604 2004.87 764.312 1934.13 741.589Z" fill="#FFC7E8"/>
<path d="M2120.76 873.337C2120.6 860.872 2140.58 821.671 2136.72 788.071C2132.87 754.471 2069.89 739.07 2060.2 724.72C2050.5 710.371 2060.2 705.731 2060.2 705.731C2060.2 705.731 2126.24 708.332 2156.07 776.478C2163.6 793.672 2164.01 826.961 2148.15 858.062C2136.96 880.006 2137.31 889.175 2137.31 889.175L2120.76 873.337Z" fill="white"/>
<path d="M2138.1 892.152C2138.89 892.152 2139.65 891.839 2140.21 891.281C2140.76 890.723 2141.08 889.966 2141.08 889.177C2141.08 882.796 2144.88 873.679 2149.27 863.123C2163.45 829.083 2184.87 777.641 2119.99 726.678C2069.01 686.636 2037.54 704.994 2007.11 722.747C1984.85 735.732 1963.81 747.993 1935.05 738.759C1934.33 738.527 1933.54 738.58 1932.86 738.906C1932.17 739.233 1931.64 739.809 1931.36 740.516C1931.09 741.223 1931.09 742.008 1931.38 742.71C1931.66 743.413 1932.21 743.98 1932.9 744.296C2025.08 786.389 2134.95 890.286 2136.05 891.333C2136.6 891.859 2137.33 892.152 2138.1 892.152ZM2062.32 708.691C2077.72 708.691 2095.09 714.695 2116.3 731.349C2177.63 779.521 2158.06 826.519 2143.77 860.835C2140.5 867.985 2137.85 875.401 2135.84 883.003C2116.07 864.77 2031.77 788.962 1953.71 747.908C1975.16 748.305 1992.88 737.936 2010.12 727.876C2026.82 718.14 2043.01 708.705 2062.32 708.705V708.691Z" fill="#BA3C86"/>
<path d="M1517.86 1028.58C1518.57 1028.58 1519.26 1028.33 1519.8 1027.86C1520.34 1027.4 1520.7 1026.76 1520.8 1026.06C1529.44 970.029 1519.24 961.653 1501.9 952.627L1501.22 952.272C1500.87 952.091 1500.49 951.98 1500.1 951.945C1499.71 951.911 1499.32 951.953 1498.95 952.07C1498.57 952.187 1498.23 952.377 1497.93 952.627C1497.63 952.878 1497.38 953.186 1497.2 953.532C1497.02 953.878 1496.91 954.257 1496.87 954.646C1496.84 955.036 1496.88 955.428 1497 955.801C1497.11 956.174 1497.3 956.52 1497.55 956.819C1497.81 957.119 1498.11 957.366 1498.46 957.547L1499.14 957.902C1513.19 965.213 1523.34 970.493 1514.92 1025.15C1514.85 1025.58 1514.88 1026.01 1515 1026.42C1515.11 1026.84 1515.32 1027.22 1515.6 1027.55C1515.88 1027.87 1516.23 1028.13 1516.62 1028.31C1517.01 1028.49 1517.43 1028.58 1517.86 1028.58V1028.58Z" fill="#BA3C86"/>
<path d="M1535.07 990.192H1535.1C1535.89 990.184 1536.64 989.863 1537.2 989.3C1537.75 988.737 1538.06 987.977 1538.05 987.189C1537.88 969.364 1530.33 961.387 1513.57 961.326C1512.78 961.324 1512.02 961.636 1511.46 962.193C1510.9 962.75 1510.58 963.506 1510.58 964.295C1510.58 965.084 1510.89 965.841 1511.45 966.4C1512.01 966.959 1512.76 967.274 1513.55 967.276C1527.1 967.325 1531.96 972.552 1532.1 987.246C1532.11 988.028 1532.42 988.776 1532.98 989.327C1533.54 989.878 1534.29 990.189 1535.07 990.192Z" fill="#BA3C86"/>
<path d="M1995.18 1053.39C2025.23 1053.39 2059.9 1037.64 2064.71 1020.65C2064.82 1020.28 2064.85 1019.88 2064.8 1019.5C2064.76 1019.11 2064.64 1018.73 2064.45 1018.39C2064.26 1018.05 2064 1017.75 2063.69 1017.51C2063.39 1017.27 2063.03 1017.09 2062.66 1016.98C2062.28 1016.87 2061.89 1016.84 2061.5 1016.89C2061.11 1016.93 2060.73 1017.06 2060.39 1017.25C2060.05 1017.44 2059.75 1017.69 2059.51 1018C2059.26 1018.31 2059.09 1018.66 2058.98 1019.03C2054.89 1033.5 2019.2 1050.02 1988.32 1047.13C1972.18 1045.61 1952.44 1038.17 1950.08 1011.35C1950.05 1010.96 1949.93 1010.58 1949.75 1010.24C1949.57 1009.89 1949.33 1009.58 1949.03 1009.33C1948.73 1009.08 1948.38 1008.89 1948.01 1008.77C1947.63 1008.65 1947.24 1008.61 1946.85 1008.65C1946.46 1008.68 1946.08 1008.79 1945.73 1008.97C1945.39 1009.15 1945.08 1009.4 1944.83 1009.7C1944.58 1010 1944.39 1010.34 1944.27 1010.72C1944.15 1011.09 1944.11 1011.48 1944.14 1011.87C1946.27 1035.98 1961.76 1050.61 1987.76 1053.05C1990.19 1053.28 1992.67 1053.39 1995.18 1053.39Z" fill="#BA3C86"/>
<path d="M1751.03 1771.71C1751.59 1771.71 1752.14 1771.55 1752.61 1771.25C1754.49 1770.07 1798.85 1741.12 1819.77 1631.48C1819.84 1631.09 1819.85 1630.69 1819.77 1630.31C1819.69 1629.92 1819.54 1629.55 1819.32 1629.23C1819.1 1628.9 1818.82 1628.62 1818.49 1628.4C1818.16 1628.18 1817.79 1628.04 1817.4 1627.96C1817.01 1627.89 1816.62 1627.89 1816.23 1627.97C1815.84 1628.05 1815.48 1628.21 1815.15 1628.44C1814.83 1628.66 1814.55 1628.95 1814.34 1629.28C1814.13 1629.61 1813.98 1629.98 1813.91 1630.37C1793.55 1737.1 1749.87 1765.94 1749.44 1766.22C1748.89 1766.56 1748.47 1767.07 1748.24 1767.68C1748.01 1768.28 1747.99 1768.94 1748.17 1769.56C1748.35 1770.18 1748.72 1770.73 1749.24 1771.11C1749.76 1771.5 1750.39 1771.71 1751.03 1771.71V1771.71Z" fill="#BA3C86"/>
<path d="M1851.89 2521.77C1836 2520.71 1777.29 2525.09 1755.03 2533.49C1757.31 2522.99 1762.74 2502.69 1762.74 2502.69L1851.89 2521.77Z" fill="#BA3C86"/>
<path d="M2278.03 2550.57C2262.9 2547.66 2224.7 2538.64 2182.29 2554.01C2183.75 2548.41 2184.72 2542.7 2185.21 2536.93L2272.03 2526.27C2272.03 2526.27 2276.22 2545.78 2278.03 2550.57Z" fill="#BA3C86"/>
<path d="M2202.19 1771.72C2202.61 1771.72 2203.03 1771.72 2203.46 1771.72C2204.25 1771.7 2205 1771.37 2205.55 1770.8C2206.09 1770.24 2206.39 1769.47 2206.38 1768.68C2206.36 1767.89 2206.04 1767.14 2205.47 1766.6C2204.9 1766.05 2204.13 1765.75 2203.34 1765.77C2202.96 1765.77 2202.58 1765.77 2202.2 1765.77C2141.68 1765.77 2077.87 1674.77 2073.19 1631.17C2073.1 1630.39 2072.71 1629.68 2072.1 1629.19C2071.48 1628.69 2070.7 1628.47 2069.92 1628.55C2069.14 1628.63 2068.42 1629.02 2067.92 1629.63C2067.43 1630.24 2067.19 1631.02 2067.27 1631.8C2072.25 1678.32 2137.62 1771.72 2202.19 1771.72Z" fill="#BA3C86"/>
<path d="M2252.5 1407C2267.22 1402.45 2246.08 1381.45 2229.25 1370.71C2212.43 1359.98 2198.88 1365.58 2192.8 1347.85C2186.73 1330.11 2179.46 1332.56 2173.99 1324.28C2168.52 1315.99 2204.4 1408.05 2209.13 1413.39C2215.09 1410.94 2252.5 1407 2252.5 1407Z" fill="#BA3C86"/>
<path d="M1466.6 1006.56C1467.19 1006.56 1467.77 1006.39 1468.26 1006.06C1468.75 1005.74 1469.13 1005.27 1469.35 1004.73C1469.58 1004.18 1469.64 1003.59 1469.52 1003.01C1469.41 1002.43 1469.12 1001.9 1468.71 1001.49L1092.93 626.235C1082.3 615.653 1067.91 609.71 1052.91 609.71C1037.9 609.71 1023.51 615.653 1012.88 626.235L959.699 679.19C946.839 691.955 929.444 699.12 911.312 699.12C893.179 699.12 875.784 691.955 862.924 679.19L816.664 633.109C813.984 630.44 811.858 627.269 810.406 623.779C808.954 620.288 808.205 616.546 808.202 612.766C808.2 608.987 808.943 605.244 810.391 601.751C811.838 598.259 813.96 595.085 816.637 592.412C816.772 592.277 816.895 592.129 817.002 591.97C821.522 585.272 828.289 577.628 830.77 577.365C832.045 577.256 834.816 578.42 838.119 581.381C842.52 585.334 845.243 590.046 845.243 592.145C844.971 593.7 839.785 598.364 834.373 601.863C834.196 601.977 834.032 602.11 833.884 602.26C831.091 605.049 829.522 608.833 829.522 612.778C829.522 616.722 831.091 620.506 833.884 623.295L872.668 662.036C882.919 672.251 896.809 677.988 911.29 677.988C925.771 677.988 939.661 672.251 949.912 662.036L1003.04 608.983C1016.27 595.798 1034.2 588.393 1052.89 588.393C1071.59 588.393 1089.52 595.798 1102.75 608.983L1468.93 974.65C1469.49 975.192 1470.24 975.492 1471.03 975.485C1471.81 975.478 1472.55 975.165 1473.11 974.614C1473.66 974.062 1473.97 973.316 1473.98 972.536C1473.99 971.756 1473.69 971.004 1473.14 970.443L1106.97 604.777C1092.61 590.477 1073.17 582.446 1052.89 582.446C1032.62 582.446 1013.18 590.477 998.825 604.777L945.699 657.83C936.565 666.928 924.191 672.037 911.29 672.037C898.389 672.037 886.014 666.928 876.881 657.83L838.075 619.077C836.435 617.438 835.497 615.227 835.46 612.91C835.423 610.593 836.29 608.353 837.876 606.663C842.105 603.906 851.184 597.373 851.184 592.135C851.184 587.289 846.616 581.016 842.085 576.948C839.565 574.685 834.651 570.956 830.13 571.44C823.775 572.111 815.002 584.289 812.205 588.402C805.773 594.935 802.188 603.743 802.233 612.905C802.278 622.067 805.948 630.839 812.444 637.31L858.703 683.391C872.68 697.269 891.587 705.059 911.296 705.061C931.006 705.064 949.915 697.277 963.894 683.403L1017.08 630.447C1026.59 620.976 1039.47 615.656 1052.9 615.656C1066.33 615.656 1079.21 620.976 1088.71 630.447L1464.49 1005.7C1465.05 1006.26 1465.81 1006.57 1466.6 1006.56V1006.56Z" fill="#BA3C86"/>
<path d="M1953.68 1376.55C1948.78 1376.55 1944.8 1372.58 1944.8 1367.68C1944.8 1362.78 1948.78 1358.81 1953.68 1358.81C1958.59 1358.81 1962.56 1362.78 1962.56 1367.68C1962.56 1372.58 1958.59 1376.55 1953.68 1376.55Z" fill="#BA3C86"/>
<path d="M2129.49 2473.5C2129.75 2473.5 2130.01 2473.47 2130.27 2473.4C2149.38 2468.28 2264.29 2450.55 2301.03 2447.06C2301.43 2447.03 2301.81 2446.92 2302.17 2446.74C2302.52 2446.56 2302.83 2446.31 2303.09 2446.01C2303.34 2445.7 2303.53 2445.35 2303.65 2444.98C2303.77 2444.6 2303.81 2444.2 2303.77 2443.81C2303.74 2443.41 2303.62 2443.03 2303.43 2442.68C2303.25 2442.34 2302.99 2442.03 2302.68 2441.78C2302.38 2441.53 2302.02 2441.34 2301.64 2441.23C2301.26 2441.12 2300.86 2441.09 2300.47 2441.13C2263.56 2444.64 2148 2462.49 2128.72 2467.65C2128.03 2467.84 2127.42 2468.28 2127.02 2468.88C2126.62 2469.47 2126.45 2470.2 2126.55 2470.91C2126.64 2471.63 2126.99 2472.28 2127.53 2472.76C2128.08 2473.24 2128.77 2473.5 2129.49 2473.5V2473.5Z" fill="#BA3C86"/>
<path d="M1887.67 2488.49C1894.15 2443.64 1862.28 2383.16 1845.46 2355.86C1828.63 2328.56 1845.24 2301.22 1873.5 2331.05C1901.75 2360.88 1903.73 2333.32 1904.32 2324.08C1904.92 2314.84 1916.86 2328.91 1916.86 2328.91C1916.86 2328.91 1897.63 2482.18 1887.67 2488.49Z" fill="white"/>
<path d="M1924.72 2447.07C1925.44 2447.07 1926.15 2446.81 1926.69 2446.32C1927.24 2445.84 1927.59 2445.18 1927.67 2444.45C1927.76 2443.73 1927.58 2443 1927.17 2442.4C1926.75 2441.81 1926.13 2441.38 1925.43 2441.21C1894.64 2433.67 1754.74 2404.36 1701.76 2398.06C1701.37 2398.01 1700.97 2398.04 1700.6 2398.15C1700.22 2398.25 1699.87 2398.43 1699.56 2398.67C1699.25 2398.92 1699 2399.22 1698.81 2399.56C1698.61 2399.9 1698.49 2400.27 1698.45 2400.66C1698.4 2401.05 1698.43 2401.44 1698.54 2401.82C1698.64 2402.19 1698.82 2402.55 1699.06 2402.85C1699.3 2403.16 1699.6 2403.42 1699.95 2403.61C1700.29 2403.8 1700.66 2403.92 1701.05 2403.97C1753.83 2410.25 1893.31 2439.47 1924.01 2446.99C1924.24 2447.04 1924.48 2447.07 1924.72 2447.07Z" fill="#BA3C86"/>
<path d="M2213.48 2531.91C2255.19 2509.86 2224.65 2492.71 2197.01 2477.31C2169.37 2461.91 2157.75 2461.91 2164.76 2432.51C2171.77 2403.11 2146.41 2397.65 2119.9 2360.41C2093.38 2323.17 2079.83 2258.68 2079.83 2258.68C2079.83 2258.68 2138.8 2500.3 2143.37 2531.16C2147.35 2552.56 2181.86 2537.77 2213.48 2531.91Z" fill="#BA3C86"/>
<path d="M2125.84 2468.06C2126.24 2469.71 2126.8 2471.99 2127.25 2473.86C2134.98 2471.99 2152.81 2468.78 2174.48 2465.19C2172.14 2463.79 2169.96 2462.13 2167.99 2460.25C2148.68 2463.48 2133.05 2466.34 2125.84 2468.06Z" fill="white"/>
<path d="M1811.62 2052.67C1803.19 2044.75 1802.04 2032.29 1809.05 2024.84C1816.07 2017.4 1828.59 2017.78 1837.02 2025.7C1845.45 2033.61 1846.6 2046.07 1839.59 2053.52C1832.57 2060.97 1820.05 2060.59 1811.62 2052.67Z" fill="#BA3C86"/>
<path d="M2128.98 2263.42C2130.49 2263.42 2131.99 2263.13 2133.4 2262.56C2150.72 2255.83 2169.39 2253.29 2187.89 2255.15C2191.01 2255.62 2194.2 2254.83 2196.74 2252.96C2199.29 2251.09 2200.98 2248.29 2201.46 2245.17C2201.93 2242.04 2201.15 2238.86 2199.27 2236.32C2197.4 2233.78 2194.59 2232.09 2191.46 2231.61C2168.77 2229.07 2145.81 2232.11 2124.56 2240.46C2121.98 2241.48 2119.85 2243.37 2118.51 2245.8C2117.18 2248.23 2116.74 2251.04 2117.26 2253.76C2117.79 2256.48 2119.24 2258.93 2121.38 2260.69C2123.52 2262.46 2126.21 2263.42 2128.98 2263.41V2263.42Z" fill="#BA3C86"/>
<path d="M2196.76 2362.58C2199.17 2362.58 2201.53 2361.84 2203.52 2360.48C2205.5 2359.11 2207.03 2357.17 2207.89 2354.92C2208.75 2352.67 2208.91 2350.22 2208.34 2347.88C2207.77 2345.53 2206.5 2343.42 2204.71 2341.81C2204.31 2341.45 2194.72 2332.91 2179.38 2321.5C2176.84 2319.62 2173.66 2318.82 2170.53 2319.28C2167.41 2319.73 2164.59 2321.41 2162.7 2323.95C2160.81 2326.48 2160.01 2329.65 2160.47 2332.78C2160.93 2335.9 2162.61 2338.71 2165.15 2340.6C2179.55 2351.31 2188.72 2359.47 2188.81 2359.54C2191 2361.5 2193.83 2362.58 2196.76 2362.58Z" fill="#BA3C86"/>
<path d="M2231.63 2134.71C2221.11 2109.26 2175.47 2012.39 2155.84 1989.06C2136.22 1965.72 2138.71 1933.05 2159.74 1947.52C2180.77 1961.99 2195.95 1994.39 2201.68 1978.42C2207.41 1962.46 2231.63 2134.71 2231.63 2134.71Z" fill="white"/>
<path d="M2199.31 1963.95C2192.45 1944.71 2184.04 1919.99 2162.54 1891.99C2141.04 1863.99 2163.86 1818.89 2184.23 1851.47" fill="white"/>
<path d="M1905.64 2303.13C1899.9 2272.78 1880.59 2300.01 1911.4 2193.06C1911.4 2193.07 1926.34 2275.14 1905.64 2303.13Z" fill="white"/>
</g>
<g clip-path="url(#clip4_9_165)">
<path d="M1038.07 2656.35H1313.93C1325.57 2656.34 1336.74 2651.76 1345.04 2643.58C1353.34 2635.39 1358.11 2624.27 1358.32 2612.6L1364.07 2289.65H987.932L993.682 2612.6C993.89 2624.27 998.658 2635.4 1006.96 2643.58C1015.26 2651.76 1026.43 2656.34 1038.07 2656.35V2656.35Z" fill="#FFC7E8"/>
<path d="M1038.07 2660H1313.93C1326.51 2659.94 1338.56 2654.96 1347.53 2646.12C1356.5 2637.28 1361.68 2625.27 1361.96 2612.66L1367.71 2289.72C1367.72 2289.24 1367.64 2288.75 1367.46 2288.3C1367.28 2287.85 1367.01 2287.44 1366.67 2287.09C1366.33 2286.75 1365.93 2286.47 1365.48 2286.28C1365.04 2286.1 1364.56 2286 1364.07 2286H987.932C987.448 2286 986.969 2286.1 986.523 2286.28C986.077 2286.47 985.672 2286.75 985.333 2287.09C984.994 2287.44 984.727 2287.85 984.548 2288.3C984.369 2288.75 984.281 2289.24 984.29 2289.72L990.04 2612.66C990.325 2625.27 995.503 2637.28 1004.47 2646.12C1013.44 2654.96 1025.5 2659.94 1038.07 2660ZM1360.36 2293.31L1354.68 2612.53C1354.43 2623.23 1350.04 2633.41 1342.43 2640.91C1334.82 2648.41 1324.6 2652.64 1313.93 2652.69H1038.08C1027.41 2652.64 1017.19 2648.42 1009.58 2640.91C1001.97 2633.41 997.575 2623.23 997.334 2612.53L991.647 2293.31H1360.36Z" fill="#BA3C86"/>
<path d="M977.481 2289.65H1374.52V2318.11H977.481V2289.65Z" fill="#FFC7E8"/>
<path d="M977.481 2321.76H1374.52C1375.49 2321.76 1376.41 2321.38 1377.1 2320.69C1377.78 2320 1378.16 2319.07 1378.16 2318.11V2289.65C1378.16 2288.69 1377.78 2287.76 1377.1 2287.07C1376.41 2286.39 1375.49 2286 1374.52 2286H977.481C976.515 2286 975.588 2286.39 974.905 2287.07C974.222 2287.76 973.838 2288.69 973.838 2289.65V2318.11C973.838 2319.07 974.222 2320 974.905 2320.69C975.588 2321.38 976.515 2321.76 977.481 2321.76ZM1370.88 2314.45H981.123V2293.31H1370.88V2314.45Z" fill="#BA3C86"/>
<path d="M1176 2533.55C1283.01 2533.55 1334.45 2482.04 1358.75 2438.83C1374.93 2409.8 1384.25 2377.44 1386 2344.23C1386.01 2343.75 1385.92 2343.27 1385.74 2342.82C1385.56 2342.37 1385.29 2341.96 1384.95 2341.62C1384.61 2341.27 1384.21 2341 1383.76 2340.81C1383.32 2340.62 1382.84 2340.53 1382.36 2340.53H1364.07C1363.11 2340.53 1362.18 2340.91 1361.5 2341.6C1360.81 2342.28 1360.43 2343.21 1360.43 2344.18C1360.43 2345.15 1360.81 2346.08 1361.5 2346.77C1362.18 2347.45 1363.11 2347.84 1364.07 2347.84H1378.53C1376.1 2378.6 1367.15 2408.48 1352.27 2435.49C1318.27 2495.71 1258.97 2526.24 1176 2526.24C1093.03 2526.24 1033.73 2495.7 999.729 2435.48C984.856 2408.48 975.904 2378.6 973.474 2347.84H987.93C988.896 2347.84 989.822 2347.45 990.505 2346.77C991.188 2346.08 991.572 2345.15 991.572 2344.18C991.572 2343.21 991.188 2342.28 990.505 2341.6C989.822 2340.91 988.896 2340.53 987.93 2340.53H969.642C969.16 2340.53 968.682 2340.62 968.237 2340.81C967.791 2341 967.387 2341.27 967.049 2341.62C966.71 2341.96 966.442 2342.37 966.262 2342.82C966.082 2343.27 965.993 2343.75 966 2344.23C967.752 2377.44 977.073 2409.81 993.245 2438.84C1017.55 2482.05 1069 2533.55 1176 2533.55Z" fill="#BA3C86"/>
<path d="M1251.75 2289.65H991.847C993.153 2308.62 1011.44 2311.78 1014.05 2324.43C1016.66 2337.07 1034.95 2393.97 1063.68 2375C1092.41 2356.04 1095.02 2397.13 1100.25 2425.58C1105.48 2454.03 1108.09 2482.48 1123.75 2482.48C1139.41 2482.48 1142.03 2431.91 1162.93 2393.97C1183.83 2356.04 1186.45 2422.42 1199.51 2438.23C1212.57 2454.03 1230.85 2441.39 1228.24 2387.65C1225.63 2333.91 1251.75 2340.23 1251.75 2340.23C1293.54 2343.4 1280.48 2397.13 1298.77 2397.13C1322.28 2397.13 1314.44 2346.55 1335.34 2337.07C1356.23 2327.59 1356.24 2308.62 1356.24 2289.65H1251.75Z" fill="white"/>
<path d="M977.481 2321.76H1374.52C1375.49 2321.76 1376.41 2321.38 1377.1 2320.69C1377.78 2320 1378.16 2319.07 1378.16 2318.11V2289.65C1378.16 2288.69 1377.78 2287.76 1377.1 2287.07C1376.41 2286.39 1375.49 2286 1374.52 2286H977.481C976.515 2286 975.588 2286.39 974.905 2287.07C974.222 2287.76 973.838 2288.69 973.838 2289.65V2318.11C973.838 2319.07 974.222 2320 974.905 2320.69C975.588 2321.38 976.515 2321.76 977.481 2321.76ZM1370.88 2314.45H981.123V2293.31H1370.88V2314.45Z" fill="#BA3C86"/>
</g>
<path d="M892.643 2008.16C891.377 2008.16 890.123 2007.92 888.953 2007.43C887.783 2006.95 886.72 2006.24 885.824 2005.35C884.929 2004.46 884.219 2003.41 883.734 2002.24C883.249 2001.08 883 1999.83 883 1998.57V1921.84C883 1919.29 884.016 1916.85 885.824 1915.05C887.633 1913.26 890.085 1912.25 892.643 1912.25H1112.5C1115.06 1912.25 1117.51 1913.26 1119.32 1915.05C1121.13 1916.85 1122.14 1919.29 1122.14 1921.84C1122.14 1924.38 1121.13 1926.82 1119.32 1928.62C1117.51 1930.42 1115.06 1931.43 1112.5 1931.43H902.286V1998.57C902.286 1999.83 902.036 2001.08 901.552 2002.24C901.067 2003.41 900.357 2004.46 899.461 2005.35C898.566 2006.24 897.503 2006.95 896.333 2007.43C895.163 2007.92 893.909 2008.16 892.643 2008.16V2008.16Z" fill="white"/>
<path d="M883.644 1931.43H815.5C812.943 1931.43 810.49 1930.42 808.682 1928.62C806.873 1926.82 805.857 1924.38 805.857 1921.84C805.857 1919.29 806.873 1916.85 808.682 1915.05C810.49 1913.26 812.943 1912.25 815.5 1912.25H883.644C886.202 1912.25 888.654 1913.26 890.463 1915.05C892.271 1916.85 893.287 1919.29 893.287 1921.84C893.287 1924.38 892.271 1926.82 890.463 1928.62C888.654 1930.42 886.202 1931.43 883.644 1931.43V1931.43Z" fill="white"/>
<path d="M1031.5 1904.57C1028.94 1904.57 1026.49 1903.56 1024.68 1901.76C1022.87 1899.96 1021.86 1897.52 1021.86 1894.98V1837.43C1021.86 1834.88 1022.87 1832.45 1024.68 1830.65C1026.49 1828.85 1028.94 1827.84 1031.5 1827.84C1034.06 1827.84 1036.51 1828.85 1038.32 1830.65C1040.13 1832.45 1041.14 1834.88 1041.14 1837.43V1894.98C1041.14 1897.52 1040.13 1899.96 1038.32 1901.76C1036.51 1903.56 1034.06 1904.57 1031.5 1904.57Z" fill="white"/>
<path d="M1120.21 1919.92H807.786C806.251 1919.92 804.78 1919.31 803.695 1918.23C802.61 1917.15 802 1915.69 802 1914.16C802 1912.64 802.61 1911.17 803.695 1910.09C804.78 1909.01 806.251 1908.41 807.786 1908.41H1120.21C1121.75 1908.41 1123.22 1909.01 1124.31 1910.09C1125.39 1911.17 1126 1912.64 1126 1914.16C1126 1915.69 1125.39 1917.15 1124.31 1918.23C1123.22 1919.31 1121.75 1919.92 1120.21 1919.92V1919.92Z" fill="#BA3C86"/>
<path d="M884.929 1965.96C883.415 1965.96 881.961 1965.37 880.879 1964.32C879.797 1963.26 879.174 1961.83 879.143 1960.32L878.179 1914.28C878.163 1913.53 878.297 1912.78 878.573 1912.07C878.849 1911.37 879.262 1910.72 879.788 1910.18C880.314 1909.63 880.943 1909.2 881.639 1908.89C882.335 1908.59 883.085 1908.42 883.845 1908.41C884.607 1908.38 885.368 1908.51 886.08 1908.78C886.793 1909.05 887.444 1909.46 887.995 1909.98C888.546 1910.51 888.985 1911.14 889.286 1911.84C889.588 1912.54 889.745 1913.29 889.75 1914.04L890.714 1960.09C890.73 1960.84 890.596 1961.59 890.32 1962.3C890.044 1963 889.631 1963.64 889.105 1964.19C888.578 1964.74 887.949 1965.17 887.253 1965.48C886.557 1965.78 885.808 1965.94 885.048 1965.96H884.929Z" fill="#BA3C86"/>
<path d="M884.929 2012C883.394 2012 881.922 2011.39 880.837 2010.31C879.752 2009.24 879.143 2007.77 879.143 2006.24V1987.06C879.143 1985.53 879.752 1984.07 880.837 1982.99C881.922 1981.91 883.394 1981.31 884.929 1981.31C886.463 1981.31 887.935 1981.91 889.02 1982.99C890.105 1984.07 890.714 1985.53 890.714 1987.06V2006.24C890.714 2007.77 890.105 2009.24 889.02 2010.31C887.935 2011.39 886.463 2012 884.929 2012Z" fill="#BA3C86"/>
<path d="M1023.79 1919.92C1022.25 1919.92 1020.78 1919.31 1019.69 1918.23C1018.61 1917.15 1018 1915.69 1018 1914.16V1829.76C1018 1828.23 1018.61 1826.76 1019.69 1825.69C1020.78 1824.61 1022.25 1824 1023.79 1824C1025.32 1824 1026.79 1824.61 1027.88 1825.69C1028.96 1826.76 1029.57 1828.23 1029.57 1829.76V1914.16C1029.57 1915.69 1028.96 1917.15 1027.88 1918.23C1026.79 1919.31 1025.32 1919.92 1023.79 1919.92V1919.92Z" fill="#BA3C86"/>
<path d="M964.235 2074.17C966.575 2074.17 968.82 2073.24 970.474 2071.58C972.129 2069.93 973.059 2067.68 973.059 2065.34V2012.36C973.059 2010.02 972.129 2007.77 970.474 2006.12C968.82 2004.46 966.575 2003.53 964.235 2003.53H752.471C750.13 2003.53 747.886 2004.46 746.231 2006.12C744.577 2007.77 743.647 2010.02 743.647 2012.36C743.647 2014.7 744.577 2016.95 746.231 2018.61C747.886 2020.26 750.13 2021.19 752.471 2021.19H955.412V2065.34C955.412 2067.68 956.341 2069.93 957.996 2071.58C959.651 2073.24 961.895 2074.17 964.235 2074.17Z" fill="white"/>
<path d="M801.882 2098.89H1013.65C1015.99 2098.89 1018.23 2097.96 1019.89 2096.31C1021.54 2094.65 1022.47 2092.41 1022.47 2090.06C1022.47 2087.72 1021.54 2085.48 1019.89 2083.82C1018.23 2082.16 1015.99 2081.23 1013.65 2081.23H801.882C799.542 2081.23 797.298 2082.16 795.643 2083.82C793.989 2085.48 793.059 2087.72 793.059 2090.06C793.059 2092.41 793.989 2094.65 795.643 2096.31C797.298 2097.96 799.542 2098.89 801.882 2098.89V2098.89Z" fill="white"/>
<path d="M854.823 2151.87C857.164 2151.87 859.408 2150.94 861.063 2149.29C862.717 2147.63 863.647 2145.38 863.647 2143.04V2093.6C863.647 2091.25 862.717 2089.01 861.063 2087.35C859.408 2085.7 857.164 2084.77 854.823 2084.77C852.483 2084.77 850.239 2085.7 848.584 2087.35C846.93 2089.01 846 2091.25 846 2093.6V2143.04C846 2145.38 846.93 2147.63 848.584 2149.29C850.239 2150.94 852.483 2151.87 854.823 2151.87V2151.87Z" fill="white"/>
<path d="M731.294 2010.6H1003.06C1004.46 2010.6 1005.81 2010.04 1006.8 2009.04C1007.8 2008.05 1008.35 2006.7 1008.35 2005.3C1008.35 2003.89 1007.8 2002.55 1006.8 2001.55C1005.81 2000.56 1004.46 2000 1003.06 2000H731.294C729.89 2000 728.544 2000.56 727.551 2001.55C726.558 2002.55 726 2003.89 726 2005.3C726 2006.7 726.558 2008.05 727.551 2009.04C728.544 2010.04 729.89 2010.6 731.294 2010.6Z" fill="#BA3C86"/>
<path d="M791.294 2088.3H1020.71C1022.11 2088.3 1023.46 2087.74 1024.45 2086.75C1025.44 2085.75 1026 2084.41 1026 2083C1026 2081.59 1025.44 2080.25 1024.45 2079.25C1023.46 2078.26 1022.11 2077.7 1020.71 2077.7H791.294C789.89 2077.7 788.543 2078.26 787.551 2079.25C786.558 2080.25 786 2081.59 786 2083C786 2084.41 786.558 2085.75 787.551 2086.75C788.543 2087.74 789.89 2088.3 791.294 2088.3V2088.3Z" fill="#BA3C86"/>
<path d="M971.294 2088.3C972.698 2088.3 974.045 2087.74 975.038 2086.75C976.03 2085.75 976.588 2084.41 976.588 2083V2005.3C976.588 2003.89 976.03 2002.55 975.038 2001.55C974.045 2000.56 972.698 2000 971.294 2000C969.89 2000 968.543 2000.56 967.551 2001.55C966.558 2002.55 966 2003.89 966 2005.3V2083C966 2084.41 966.558 2085.75 967.551 2086.75C968.543 2087.74 969.89 2088.3 971.294 2088.3V2088.3Z" fill="#BA3C86"/>
<path d="M861.882 2166C863.286 2166 864.633 2165.44 865.626 2164.45C866.619 2163.45 867.177 2162.11 867.177 2160.7V2083C867.177 2081.59 866.619 2080.25 865.626 2079.25C864.633 2078.26 863.286 2077.7 861.882 2077.7C860.478 2077.7 859.132 2078.26 858.139 2079.25C857.146 2080.25 856.588 2081.59 856.588 2083V2160.7C856.588 2162.11 857.146 2163.45 858.139 2164.45C859.132 2165.44 860.478 2166 861.882 2166Z" fill="#BA3C86"/>
<path d="M741.882 2088.3H766.588C767.992 2088.3 769.339 2087.74 770.332 2086.75C771.325 2085.75 771.882 2084.41 771.882 2083C771.882 2081.59 771.325 2080.25 770.332 2079.25C769.339 2078.26 767.992 2077.7 766.588 2077.7H741.882C740.478 2077.7 739.132 2078.26 738.139 2079.25C737.146 2080.25 736.588 2081.59 736.588 2083C736.588 2084.41 737.146 2085.75 738.139 2086.75C739.132 2087.74 740.478 2088.3 741.882 2088.3V2088.3Z" fill="#BA3C86"/>
<path d="M721.357 1222.16C722.623 1222.16 723.877 1221.92 725.047 1221.43C726.217 1220.95 727.28 1220.24 728.176 1219.35C729.071 1218.46 729.781 1217.41 730.266 1216.24C730.751 1215.08 731 1213.83 731 1212.57V1135.84C731 1133.29 729.984 1130.85 728.176 1129.05C726.367 1127.26 723.915 1126.25 721.357 1126.25H501.5C498.943 1126.25 496.49 1127.26 494.681 1129.05C492.873 1130.85 491.857 1133.29 491.857 1135.84C491.857 1138.38 492.873 1140.82 494.681 1142.62C496.49 1144.42 498.943 1145.43 501.5 1145.43H711.714V1212.57C711.714 1213.83 711.964 1215.08 712.448 1216.24C712.933 1217.41 713.643 1218.46 714.539 1219.35C715.434 1220.24 716.497 1220.95 717.667 1221.43C718.837 1221.92 720.091 1222.16 721.357 1222.16V1222.16Z" fill="white"/>
<path d="M730.356 1145.43H798.5C801.057 1145.43 803.51 1144.42 805.318 1142.62C807.127 1140.82 808.143 1138.38 808.143 1135.84C808.143 1133.29 807.127 1130.85 805.318 1129.05C803.51 1127.26 801.057 1126.25 798.5 1126.25H730.356C727.798 1126.25 725.346 1127.26 723.537 1129.05C721.729 1130.85 720.713 1133.29 720.713 1135.84C720.713 1138.38 721.729 1140.82 723.537 1142.62C725.346 1144.42 727.798 1145.43 730.356 1145.43V1145.43Z" fill="white"/>
<path d="M582.5 1118.57C585.057 1118.57 587.51 1117.56 589.319 1115.76C591.127 1113.96 592.143 1111.52 592.143 1108.98V1051.43C592.143 1048.88 591.127 1046.45 589.319 1044.65C587.51 1042.85 585.057 1041.84 582.5 1041.84C579.943 1041.84 577.49 1042.85 575.681 1044.65C573.873 1046.45 572.857 1048.88 572.857 1051.43V1108.98C572.857 1111.52 573.873 1113.96 575.681 1115.76C577.49 1117.56 579.943 1118.57 582.5 1118.57Z" fill="white"/>
<path d="M493.786 1133.92H806.214C807.749 1133.92 809.22 1133.31 810.305 1132.23C811.39 1131.15 812 1129.69 812 1128.16C812 1126.64 811.39 1125.17 810.305 1124.09C809.22 1123.01 807.749 1122.41 806.214 1122.41H493.786C492.251 1122.41 490.78 1123.01 489.695 1124.09C488.61 1125.17 488 1126.64 488 1128.16C488 1129.69 488.61 1131.15 489.695 1132.23C490.78 1133.31 492.251 1133.92 493.786 1133.92V1133.92Z" fill="#BA3C86"/>
<path d="M729.071 1179.96C730.585 1179.96 732.039 1179.37 733.121 1178.32C734.203 1177.26 734.826 1175.83 734.857 1174.32L735.821 1128.28C735.837 1127.53 735.703 1126.78 735.427 1126.07C735.151 1125.37 734.738 1124.72 734.212 1124.18C733.686 1123.63 733.057 1123.2 732.361 1122.89C731.665 1122.59 730.915 1122.42 730.155 1122.41C729.393 1122.38 728.632 1122.51 727.92 1122.78C727.207 1123.05 726.556 1123.46 726.005 1123.98C725.454 1124.51 725.015 1125.14 724.714 1125.84C724.412 1126.54 724.255 1127.29 724.25 1128.04L723.286 1174.09C723.27 1174.84 723.404 1175.59 723.68 1176.3C723.956 1177 724.369 1177.64 724.895 1178.19C725.422 1178.74 726.051 1179.17 726.747 1179.48C727.443 1179.78 728.192 1179.94 728.952 1179.96H729.071Z" fill="#BA3C86"/>
<path d="M729.071 1226C730.606 1226 732.078 1225.39 733.163 1224.31C734.248 1223.24 734.857 1221.77 734.857 1220.24V1201.06C734.857 1199.53 734.248 1198.07 733.163 1196.99C732.078 1195.91 730.606 1195.31 729.071 1195.31C727.537 1195.31 726.065 1195.91 724.98 1196.99C723.895 1198.07 723.286 1199.53 723.286 1201.06V1220.24C723.286 1221.77 723.895 1223.24 724.98 1224.31C726.065 1225.39 727.537 1226 729.071 1226Z" fill="#BA3C86"/>
<path d="M590.214 1133.92C591.749 1133.92 593.22 1133.31 594.305 1132.23C595.39 1131.15 596 1129.69 596 1128.16V1043.76C596 1042.23 595.39 1040.76 594.305 1039.69C593.22 1038.61 591.749 1038 590.214 1038C588.68 1038 587.208 1038.61 586.123 1039.69C585.038 1040.76 584.429 1042.23 584.429 1043.76V1128.16C584.429 1129.69 585.038 1131.15 586.123 1132.23C587.208 1133.31 588.68 1133.92 590.214 1133.92V1133.92Z" fill="#BA3C86"/>
</g>
<defs>
<clipPath id="clip0_9_165">
<rect width="3000" height="3000" fill="white" transform="matrix(-1 0 0 1 3000 0)"/>
</clipPath>
<clipPath id="clip1_9_165">
<rect width="2366" height="2180" fill="white" transform="matrix(-0.893683 0.448699 0.448699 0.893683 1967.14 -286.925)"/>
</clipPath>
<clipPath id="clip2_9_165">
<rect width="710" height="596" fill="white" transform="matrix(-0.99438 0.105867 0.105867 0.99438 1530.46 324.092)"/>
</clipPath>
<clipPath id="clip3_9_165">
<rect width="1620" height="2482" fill="white" transform="matrix(-1 0 0 1 2406 292)"/>
</clipPath>
<clipPath id="clip4_9_165">
<rect width="420" height="374" fill="white" transform="matrix(-1 0 0 1 1386 2286)"/>
</clipPath>
</defs>
</svg>
